<?xml version="1.0" encoding="UTF-8"?>
<svg width="54px" height="54px" viewBox="0 0 54 54" version="1.1" xmlns="http://www.w3.org/2000/svg" xmlns:xlink="http://www.w3.org/1999/xlink">
    <title>用户反馈</title>
    <g id="2.0" stroke="none" stroke-width="1" fill="none" fill-rule="evenodd">
        <g id="切图" transform="translate(-8014.000000, -878.000000)" fill-rule="nonzero">
            <g id="用户反馈" transform="translate(8021.000000, 886.000000)">
                <path d="M39.5058824,0.476102941 C38.9176471,-0.112132353 37.9294118,-0.112132353 37.3411765,0.476102941 L13.0588235,24.7584559 C12.4705882,25.3466912 12.4705882,26.3349265 13.0588235,26.9231618 C13.3647059,27.2290441 13.7411765,27.3702206 14.1411765,27.3702206 C14.5411765,27.3702206 14.9176471,27.2290441 15.2235294,26.9231618 L39.5058824,2.64080882 C40.0941176,2.05257353 40.0941176,1.08786765 39.5058824,0.476102941 Z" id="路径" stroke="#FFBE00" stroke-width="0.4" fill="#FFBE00"></path>
                <path d="M35.9529412,13.9113971 C35.1058824,13.9113971 34.4235294,14.59375 34.4235294,15.4408088 L34.4235294,33.8878676 C34.4235294,34.4525735 33.9529412,34.9231618 33.3882353,34.9231618 L4.09411765,34.9231618 C3.52941176,34.9231618 3.05882353,34.4525735 3.05882353,33.8878676 L3.05882353,4.61727941 C3.05882353,4.05257353 3.52941176,3.58198529 4.09411765,3.58198529 L25.8117647,3.58198529 C26.6588235,3.58198529 27.3411765,2.89963235 27.3411765,2.05257353 C27.3411765,1.20551471 26.6588235,0.523161765 25.8117647,0.523161765 L4.09411765,0.523161765 C1.83529412,0.523161765 0,2.35845588 0,4.61727941 L0,33.8878676 C0,36.1466912 1.83529412,37.9819853 4.09411765,37.9819853 L33.3647059,37.9819853 C35.6235294,37.9819853 37.4588235,36.1466912 37.4588235,33.8878676 L37.4588235,15.4408088 C37.4823529,14.59375 36.8,13.9113971 35.9529412,13.9113971 Z" id="路径" stroke="#3065EA" stroke-width="0.3" fill="#3065EA"></path>
            </g>
        </g>
    </g>
</svg>