<?xml version="1.0" encoding="UTF-8"?>
<svg width="54px" height="54px" viewBox="0 0 54 54" version="1.1" xmlns="http://www.w3.org/2000/svg" xmlns:xlink="http://www.w3.org/1999/xlink">
    <title>头条</title>
    <g id="2.0" stroke="none" stroke-width="1" fill="none" fill-rule="evenodd">
        <g id="切图" transform="translate(-8249.000000, -1058.000000)" fill-rule="nonzero" stroke-width="0.4">
            <g id="头条" transform="translate(8258.000000, 1065.000000)">
                <path d="M35.5882984,37.327068 L27.2333435,31.4889326 C26.7535978,31.1494203 26.1114767,31.1568009 25.631731,31.4963133 L18.1772218,36.7661347 L10.7227125,31.4963133 C10.2503475,31.156801 9.61560717,31.156801 9.13586153,31.4889326 L2.8179804,35.8287855 L2.8179804,5.10292202 C2.8179804,3.82606051 3.85865941,2.7853815 5.13552092,2.7853815 L31.08607,2.7853815 C32.3629315,2.7853815 33.4036105,3.82606051 33.4036105,5.10292202 L33.4036105,26.4552936 C33.4036105,27.2228867 34.0235895,27.8428656 34.7911826,27.8428656 C35.5587756,27.8428656 36.1787546,27.2228867 36.1787546,26.4552936 L36.1787546,5.10292202 C36.1787546,2.29087443 33.8907369,0.00285674183 31.0786893,0.00285674183 L5.13552092,0.00285674183 C2.32347334,0.00285674183 0.0354556432,2.29087444 0.0354556432,5.10292202 L0.0354556432,38.4710769 C0.0354556432,38.9877261 0.323303031,39.460091 0.780906558,39.7036542 C1.23851008,39.9472173 1.79206274,39.9103138 2.21276279,39.6224664 L9.91083527,34.3305029 L17.380106,39.607705 C17.8598516,39.9472173 18.5019727,39.9472173 18.989099,39.607705 L26.450989,34.3305029 L34.0088281,39.607705 C34.2523913,39.7774612 34.532858,39.8586489 34.805944,39.8586489 C35.2414054,39.8586489 35.6768669,39.6519893 35.9499528,39.2681927 C36.3706529,38.6334524 36.2230388,37.7699102 35.5882984,37.327068 Z" id="路径" stroke="#3065EA" fill="#3065EA"></path>
                <path d="M7.88852284,14.0335718 L16.3468076,14.0335718 C17.1144006,14.0335718 17.7343796,13.4135927 17.7343796,12.6459997 C17.7343796,11.8784067 17.1144006,11.2584277 16.3468076,11.2584277 L7.88852284,11.2584277 C7.12092981,11.2584277 6.50088633,11.8784067 6.50088633,12.6459997 C6.49357008,13.406212 7.12092981,14.0335718 7.88852284,14.0335718 Z M7.88852284,22.3147197 L28.3404488,22.3147197 C29.1080418,22.3147197 29.7280208,21.6947406 29.7280208,20.9271477 C29.7280208,20.1595547 29.1080418,19.5395756 28.3404488,19.5395756 L7.88852284,19.5395756 C7.12092981,19.5395756 6.50088633,20.1595546 6.50088633,20.9271477 C6.49357008,21.6947407 7.12092981,22.3147197 7.88852284,22.3147197 Z" id="形状" stroke="#FFBE00" fill="#FFBE00"></path>
            </g>
        </g>
    </g>
</svg>