<?xml version="1.0" encoding="UTF-8"?>
<svg width="54px" height="54px" viewBox="0 0 54 54" version="1.1" xmlns="http://www.w3.org/2000/svg" xmlns:xlink="http://www.w3.org/1999/xlink">
    <title>建房攻略</title>
    <g id="2.0" stroke="none" stroke-width="1" fill="none" fill-rule="evenodd">
        <g id="切图" transform="translate(-7779.000000, -878.000000)" fill-rule="nonzero">
            <g id="建房攻略" transform="translate(7786.000000, 885.000000)">
                <path d="M2.92684699,5.16818763 L2.92684699,29.5423 L19.4933659,35.9556541 L36.0975787,29.5404296 L36.0975787,4.7361419 L21.2329446,9.10522773 C20.1309364,9.42951998 18.9599263,9.44441014 17.8499069,9.14824525 L2.92684699,5.16818763 Z M20.0230776,5.64760391 L36.5197516,0.655783158 C37.1096908,0.4776076 37.7473737,0.593958628 38.240374,0.96972629 C38.7333743,1.34549395 39.0239465,1.93666438 39.024408,2.56484667 L39.024408,30.6175751 C39.024408,31.4385327 38.5316789,32.1755822 37.7827228,32.4741122 L20.2040089,39.4619368 C19.7477512,39.6437987 19.2411978,39.6437987 18.7849401,39.4619368 L1.24170297,32.4759235 C0.492746818,32.1773935 1.77210387e-05,31.4403439 1.77210387e-05,30.6193863 L1.77210387e-05,3.05388573 C1.77210387e-05,2.43410065 0.282671763,1.84965835 0.764476103,1.4726957 C1.24628044,1.09573305 1.8724487,0.969188022 2.45855437,1.13033215 L18.9623237,5.66209393 C19.3104335,5.7573871 19.677589,5.75237171 20.0230776,5.64760391 Z" id="形状" stroke="#3065EA" stroke-width="0.5" fill="#3065EA"></path>
                <path d="M13.2971831,22.7064826 C12.3359912,22.7064826 11.5883975,21.9588889 11.5883975,20.997697 C11.5883975,20.0365051 12.3359912,19.2889115 13.2971831,19.2889115 L25.6858784,19.2889115 C26.6470702,19.2889115 27.3946639,20.0365052 27.3946639,20.997697 C27.3946639,21.9588889 26.6470702,22.7064826 25.6858784,22.7064826 L13.2971831,22.7064826 Z" id="路径" fill="#FFBE00" transform="translate(19.491531, 20.997697) rotate(-270.000000) translate(-19.491531, -20.997697) "></path>
            </g>
        </g>
    </g>
</svg>