<?xml version="1.0" encoding="UTF-8"?>
<svg width="54px" height="54px" viewBox="0 0 54 54" version="1.1" xmlns="http://www.w3.org/2000/svg" xmlns:xlink="http://www.w3.org/1999/xlink">
    <title>电视 直播 观看 视频 播放 媒体</title>
    <g id="2.0" stroke="none" stroke-width="1" fill="none" fill-rule="evenodd">
        <g id="切图" transform="translate(-8014.000000, -1058.000000)" fill-rule="nonzero" stroke-width="0.4">
            <g id="电视-直播-观看-视频-播放-媒体" transform="translate(8021.000000, 1066.000000)">
                <path d="M25.9765625,21.5521365 L16.9403699,16.3544324 C16.6972258,16.2189094 16.3982781,16.1391901 16.1272321,16.1391901 L16.0993304,16.1391901 C15.6648597,16.1391901 15.2861926,16.3305166 14.9633291,16.6254783 C14.6643814,16.924426 14.4770408,17.3549107 14.4770408,17.7893814 L14.5328444,27.3158482 C14.5328444,27.5589923 14.588648,27.8021365 14.6962691,28.0213648 C14.9673151,28.5913584 15.5333227,28.9421237 16.1830357,28.9421237 C16.4261798,28.9421237 16.669324,28.8863202 16.8885523,28.778699 L25.8689413,24.4180485 C26.167889,24.2825255 26.4110332,24.0393814 26.5744579,23.7683355 C26.7897003,23.3896684 26.8455038,22.9551977 26.7378827,22.524713 C26.6262755,22.1181441 26.3552296,21.7673788 25.9765625,21.5521365 Z M16.9921875,25.9885204 L16.9642857,19.2522321 L23.3498087,22.9312819 L16.9921875,25.9885204 Z" id="形状" stroke="#FFBE00" fill="#FFBE00"></path>
                <path d="M33.8249362,6.80404974 L28.252551,6.80404974 L30.6600765,1.98899872 L30.6879783,1.93319515 C30.9590242,1.33928571 30.6879783,0.633769133 30.1179847,0.334821429 C29.9545599,0.255102041 29.7672194,0.199298469 29.5479911,0.199298469 C29.0896046,0.199298469 28.6551339,0.470344388 28.4398916,0.876913265 L25.4623724,6.80404974 L14.584662,6.80404974 L11.4716199,0.71348852 C11.2563776,0.279017857 10.8219069,0.0358737245 10.3635204,0.0358737245 C10.1721939,0.0358737245 9.98485332,0.0916772959 9.82142857,0.171396684 C9.19961735,0.470344388 8.95647321,1.22767857 9.27933673,1.82158801 L11.8223852,6.80006378 L6.0028699,6.80006378 C2.67857143,6.80404974 0,9.51052296 0,12.8109056 L0,31.1025191 C0,34.4308036 2.70647321,37.109375 6.00685587,37.109375 L33.852838,37.109375 C37.1811224,37.109375 39.8596939,34.4029018 39.8596939,31.1025191 L39.8596939,12.8109056 C39.8317921,9.51052296 37.1532207,6.80404974 33.8249362,6.80404974 Z M37.368463,31.1304209 C37.368463,33.0795599 35.7700893,34.6739477 33.8249362,34.6739477 L5.97895408,34.6739477 C4.02981505,34.6739477 2.4354273,33.075574 2.4354273,31.1304209 L2.4354273,12.8109056 C2.4354273,10.8617666 4.03380102,9.26737883 5.97895408,9.26737883 L33.8209503,9.26737883 C35.7700893,9.26737883 37.364477,10.8657526 37.364477,12.8109056 L37.368463,31.1304209 Z" id="形状" stroke="#3065EA" fill="#3065EA"></path>
            </g>
        </g>
    </g>
</svg>