<?xml version="1.0" encoding="UTF-8"?>
<svg width="54px" height="54px" viewBox="0 0 54 54" version="1.1" xmlns="http://www.w3.org/2000/svg" xmlns:xlink="http://www.w3.org/1999/xlink">
    <title>公众号</title>
    <g id="2.0" stroke="none" stroke-width="1" fill="none" fill-rule="evenodd">
        <g id="切图" transform="translate(-7779.000000, -1062.000000)" fill-rule="nonzero">
            <g id="公众号" transform="translate(7786.000000, 1069.000000)">
                <path d="M28.3730596,13.2346814 C28.685188,13.5467777 28.8605426,13.9700904 28.8605426,14.4114839 C28.8605426,14.8528774 28.685188,15.27619 28.3730596,15.5882864 L20.3058109,23.6545139 C19.2265625,24.7653186 17.4519506,24.7932496 16.3381332,23.7171671 L11.6518076,19.0158292 C11.2126317,18.5854277 11.0383785,17.9523575 11.1954442,17.3578398 C11.3525099,16.7633221 11.8167037,16.2989234 12.411152,16.1415952 C13.0057216,15.9844567 13.6388766,16.1587288 14.0692913,16.5979882 L18.3636642,20.8922079 L26.0225694,13.2366728 C26.6722324,12.588031 27.7244179,12.588031 28.3740298,13.2366728 L28.3730596,13.2346814 L28.3730596,13.2346814 Z" id="路径" fill="#FFBE00"></path>
                <path d="M19.893127,39.9796262 C19.2552508,39.9789321 18.6327624,39.7836797 18.1087623,39.4199346 L17.9992851,39.3439542 L17.4503676,38.7936581 L13.6342422,34.901348 L7.56004902,34.901348 L7.4393893,34.8810253 C6.00285948,34.6418505 4.92177288,33.4425041 4.83261846,31.9888174 L4.8296058,31.9403595 L4.8296058,26.0081699 L0.822661356,22.0354882 L0.783343546,21.9900429 C0.296460444,21.4199337 0.0285947712,20.694879 0.0285947712,19.9451593 L0.0285947712,19.9174326 C0.043811401,19.1742909 0.314669084,18.4590968 0.795547386,17.89231 L0.832209967,17.8492136 L4.82087418,13.8442096 L4.82087418,7.81648284 L4.82383578,7.76802492 C4.92938113,6.18867443 6.19393382,4.93489583 7.77425449,4.84293301 L7.85702614,4.84053309 L13.6929126,4.84053309 L17.78125,0.83057598 L17.8103554,0.80443219 C18.9796262,-0.225183824 20.7276859,-0.238357843 21.9122753,0.773335376 L21.9651246,0.821793301 L22.201491,1.04559845 L25.9683415,4.83517157 L31.9669118,4.83517157 L32.0259906,4.83992034 C32.6100187,4.88667942 33.1687038,5.09857492 33.6368464,5.45087827 L33.6727431,5.47901348 L33.7907986,5.57592933 L33.8219465,5.60386029 C33.9372096,5.70777677 34.0460372,5.81861647 34.1478248,5.93576389 L34.1861213,5.98044322 L34.2956495,6.13066789 C34.6591184,6.62259878 34.8668527,7.2121518 34.8920547,7.8232741 L34.8920547,13.5201185 L38.8776552,17.5895118 L39.3196998,18.0332925 L39.3844975,18.1214767 C40.1242851,19.1409314 40.1815257,20.5042382 39.5299224,21.5821078 L39.4377553,21.7330984 L34.8882251,26.2513276 L34.8882251,32.1691176 L34.871681,32.2776246 C34.6712112,33.5671467 33.6970486,34.5999796 32.4213133,34.8752042 L32.2721099,34.9063521 L26.3193934,34.9063521 L22.217065,38.9272876 L21.9166667,39.2388174 L21.8406863,39.2988664 C21.2870217,39.7392408 20.6005688,39.979187 19.893127,39.9796262 Z M19.8261336,37.0597426 C19.8809743,37.0760825 19.9397978,37.0714869 19.9914726,37.0465686 L20.1688113,36.8640727 L25.1326083,31.9995915 L31.89471,31.9995915 C31.9330226,31.9748759 31.9632125,31.9394294 31.9815155,31.8976716 L31.9815155,25.0415645 L37.0745507,19.9818219 L37.0745507,19.939185 C37.0745507,19.9227941 37.0719465,19.9064542 37.0667382,19.8908803 L36.8062704,19.6291871 L31.9857026,14.708895 L31.9857026,7.92938113 C31.9815272,7.90189796 31.9707711,7.87583112 31.9543505,7.85340074 L31.9160539,7.80095997 C31.9102839,7.79513889 31.9039011,7.78839869 31.8961397,7.78160743 L31.8763787,7.7652165 C31.8587703,7.75414892 31.8394174,7.7461384 31.8191381,7.74152369 L24.7589869,7.74152369 L20.1566585,3.11141748 L20.0112337,2.97339665 C19.9327792,2.91711822 19.8271779,2.91711822 19.7487234,2.97339665 L14.879902,7.74826389 L7.91809641,7.74826389 C7.82173496,7.76331953 7.74550208,7.83778956 7.72819649,7.93377247 L7.72819649,15.0465686 L2.98958333,19.8051471 C2.95823093,19.8518492 2.93973837,19.9059884 2.93596814,19.9621119 C2.93811275,20.0028084 2.95108252,20.0424837 2.97324346,20.0767974 L7.73636642,24.7964665 L7.73636642,31.8280739 C7.74886631,31.9004504 7.795395,31.9624063 7.86141748,31.9945874 L14.8551368,31.9945874 L19.5219567,36.7539318 L19.8261336,37.0597426 L19.8261336,37.0597426 Z" id="形状" stroke="#3065EA" stroke-width="0.2" fill="#3065EA"></path>
            </g>
        </g>
    </g>
</svg>