<?xml version="1.0" encoding="UTF-8"?>
<svg width="40px" height="40px" viewBox="0 0 40 40" version="1.1" xmlns="http://www.w3.org/2000/svg" xmlns:xlink="http://www.w3.org/1999/xlink">
    <title>切片</title>
    <g id="2.0" stroke="none" stroke-width="1" fill="none" fill-rule="evenodd">
        <g id="1010新增功能" transform="translate(-1257.000000, -631.000000)">
            <g id="编组-61" transform="translate(1227.000000, 106.000000)">
                <g id="ic_people" transform="translate(30.000000, 525.000000)">
                    <rect id="矩形" x="0" y="0" width="40" height="40"></rect>
                    <path d="M20,4.125 C24.4873136,4.125 28.125,7.76268641 28.125,12.25 C28.125,16.7373136 24.4873136,20.375 20,20.375 C12.1957419,20.375 5.86914062,26.7016012 5.86914062,34.5058594 C5.86914062,35.1962153 5.30949656,35.7558594 4.61914062,35.7558594 C3.92878469,35.7558594 3.36914062,35.1962153 3.36914062,34.5058594 C3.36914062,27.0676541 8.25226079,20.7699627 14.9876503,18.6436359 C13.0925083,17.1576964 11.875,14.8460303 11.875,12.25 C11.875,7.76268641 15.5126864,4.125 20,4.125 Z M27.2981168,19.5579971 C32.961731,22.3279933 36.6308594,28.0876901 36.6308594,34.5058594 C36.6308594,35.1962153 36.0712153,35.7558594 35.3808594,35.7558594 C34.6905034,35.7558594 34.1308594,35.1962153 34.1308594,34.5058594 C34.1308594,29.0516284 31.0135433,24.1581515 26.1997336,21.803783 C25.5795769,21.5004728 25.3227221,20.7518551 25.6260322,20.1316984 C25.9293424,19.5115418 26.6779601,19.2546869 27.2981168,19.5579971 Z M20,6.625 C16.8933983,6.625 14.375,9.14339828 14.375,12.25 C14.375,15.3566017 16.8933983,17.875 20,17.875 C23.1066017,17.875 25.625,15.3566017 25.625,12.25 C25.625,9.14339828 23.1066017,6.625 20,6.625 Z" id="path1" fill="#373B42" fill-rule="nonzero"></path>
                </g>
            </g>
        </g>
    </g>
</svg>