<?xml version="1.0" encoding="UTF-8"?>
<svg width="54px" height="54px" viewBox="0 0 54 54" version="1.1" xmlns="http://www.w3.org/2000/svg" xmlns:xlink="http://www.w3.org/1999/xlink">
    <title>编组</title>
    <g id="2.0" stroke="none" stroke-width="1" fill="none" fill-rule="evenodd">
        <g id="切图" transform="translate(-8249.000000, -878.000000)">
            <g id="编组" transform="translate(8257.000000, 885.000000)">
                <path d="M27.468027,14.9717269 C27.1456264,14.967886 26.8378695,14.8363331 26.6126932,14.6056354 C26.3872768,14.3750578 26.2628057,14.0643001 26.2666467,13.7420195 L26.2666467,10.1872108 C26.2188747,6.5495814 23.0333983,2.48044411 18.5509977,2.48044411 C14.2950938,2.48044411 10.8357089,6.39750338 10.8357089,11.2135874 L10.8357089,13.5653353 C10.8424306,14.236063 10.3048162,14.7854404 9.63432858,14.7931223 C8.96348087,14.7854404 8.4259865,14.236063 8.43276361,13.5653353 L8.43276361,11.2135874 C8.43276361,5.04224456 12.9717629,0.0246301575 18.5509977,0.0246301575 C23.8691673,0.0246301575 28.5969092,4.76497524 28.6694719,10.1695664 L28.6694719,13.7420195 C28.6762491,14.4126272 28.1386347,14.9622446 27.468027,14.9698065 L27.468027,14.9717269 Z" id="路径" stroke="#3065EA" stroke-width="0.7" fill="#3065EA"></path>
                <g transform="translate(0.000000, 13.494854)" fill="#3065EA" id="Fill-3" stroke="#3065EA" stroke-width="0.7">
                    <g>
                        <path d="M4.48229257,2.49262716 C3.37453563,2.49262716 2.4735904,3.48743586 2.4735904,4.70634059 L2.4735904,20.739949 C2.4735904,21.9643751 3.37453563,22.9554629 4.48229257,22.9554629 L32.620087,22.9554629 C33.7277239,22.9554629 34.6286692,21.9643751 34.6286692,20.7417494 L34.6286692,4.70634059 C34.6286692,3.48539535 33.7277239,2.49262716 32.620087,2.49262716 L4.48229257,2.49262716 Z M32.6217674,25.3989137 L4.48229257,25.3989137 C2.00883421,25.3989137 1.20030008e-05,23.3105116 1.20030008e-05,20.7417494 L1.20030008e-05,4.70634059 C1.20030008e-05,2.13937884 2.01051463,0.0492963241 4.48229257,0.0492963241 L32.620087,0.0492963241 C35.0917449,0.0492963241 37.1023685,2.13937884 37.1023685,4.70634059 L37.1023685,20.739949 C37.103928,23.3105116 35.0934254,25.3989137 32.6217674,25.3989137 L32.6217674,25.3989137 Z"></path>
                    </g>
                </g>
                <path d="M18.5509547,23.255814 C16.5000378,23.255814 14.8302476,24.926115 14.8302476,26.9757257 C14.8302476,29.0275189 16.5000378,30.6976744 18.5509547,30.6976744 C20.6020204,30.6976744 22.272108,29.0275189 22.272108,26.9757257 C22.272108,24.926115 20.6020204,23.255814 18.5509547,23.255814 L18.5509547,23.255814 Z M18.5509609,33.4883721 C14.9589867,33.4883721 12.0395499,30.5653181 12.0395499,26.9758955 C12.0395499,23.3884532 14.9589867,20.4651163 18.5509609,20.4651163 C22.1388872,20.4651163 25.0628057,23.3884532 25.0628057,26.9758955 C25.0628057,30.5653181 22.1388872,33.4883721 18.5509609,33.4883721 L18.5509609,33.4883721 Z" id="Fill-5" stroke="#FFBE00" stroke-width="0.3" fill="#FFBE00"></path>
            </g>
        </g>
    </g>
</svg>