<?xml version="1.0" encoding="UTF-8"?>
<svg width="44px" height="36px" viewBox="0 0 44 36" version="1.1" xmlns="http://www.w3.org/2000/svg" xmlns:xlink="http://www.w3.org/1999/xlink">
    <title>Fill 1</title>
    <g id="mindspore小程序1.0" stroke="none" stroke-width="1" fill="none" fill-rule="evenodd">
        <g id="切图规范" transform="translate(-706.000000, -1276.000000)" fill="#FFFFFF">
            <path d="M727.412707,1286.86419 C728.543078,1286.86419 729.298698,1286.10728 729.298698,1284.97965 C729.298698,1283.8394 728.544527,1283.10181 727.412707,1283.10181 C726.28062,1283.10181 725.144776,1283.8394 725.144776,1284.97965 C725.14601,1286.10728 726.282068,1286.86419 727.412707,1286.86419 Z M716.86419,1283.10181 C715.733766,1283.10181 714.590839,1283.8394 714.590839,1284.97965 C714.590839,1286.10728 715.733766,1286.86419 716.86419,1286.86419 C717.99059,1286.86419 718.744761,1286.10728 718.744761,1284.97965 C718.743473,1283.8394 717.99059,1283.10181 716.86419,1283.10181 Z M749.95702,1298.9292 C749.95702,1292.96742 744.426649,1287.88767 737.6382,1287.35887 C737.647644,1287.28466 737.651829,1287.20771 737.635249,1287.13082 C736.274093,1280.78441 729.449854,1276 721.759888,1276 C713.070156,1276 706,1282.05923 706,1289.5073 C706,1293.5032 708.039883,1297.10353 711.90539,1299.94281 L710.55781,1303.99382 C710.471259,1304.2575 710.549654,1304.54741 710.759673,1304.73018 C710.887541,1304.84001 711.048088,1304.89764 711.210351,1304.89764 C711.314717,1304.89764 711.420585,1304.87291 711.518029,1304.82494 L716.577224,1302.29311 L717.20079,1302.41948 C718.758551,1302.73955 720.103395,1303.01707 721.759888,1303.01707 C722.247644,1303.01707 722.742107,1302.99507 723.227127,1302.95397 C723.423517,1302.93744 723.589751,1302.8385 723.702273,1302.69577 C725.526449,1307.26028 730.554254,1310.55567 736.470483,1310.55567 C737.985746,1310.55567 739.520005,1310.19036 740.896507,1309.84555 L744.796195,1311.9774 C744.899273,1312.0338 745.013298,1312.06272 745.125873,1312.06272 C745.279712,1312.06272 745.433551,1312.01057 745.557234,1311.91017 C745.774176,1311.73428 745.863463,1311.44463 745.782546,1311.17945 L744.786537,1307.86754 C748.125922,1305.22882 749.95702,1302.07199 749.95702,1298.9292 Z M723.110366,1301.58444 C722.663927,1301.62281 722.210512,1301.64207 721.761337,1301.64207 C720.244893,1301.64207 718.961863,1301.37968 717.478312,1301.07345 L716.61559,1300.89906 C716.467171,1300.8674 716.310595,1300.88796 716.174785,1300.95793 L712.384722,1302.85508 L713.369678,1299.89608 C713.465888,1299.60643 713.36002,1299.29033 713.11142,1299.11594 C709.303541,1296.46193 707.373766,1293.22836 707.373766,1289.5073 C707.373766,1282.81759 713.82701,1277.37377 721.759888,1277.37377 C728.772576,1277.37377 734.981459,1281.64021 736.262985,1287.31481 C728.909888,1287.41102 722.960498,1292.58006 722.960498,1298.9292 C722.960498,1299.85229 723.100707,1300.74646 723.336966,1301.60918 C723.265493,1301.59137 723.189995,1301.57752 723.110366,1301.58444 Z M743.580454,1307.06116 C743.351171,1307.23431 743.253673,1307.53239 743.336093,1307.80717 L743.985844,1309.96773 L741.319498,1308.50892 C741.217815,1308.45274 741.10379,1308.42381 740.989766,1308.42381 C740.933585,1308.42381 740.87719,1308.43074 740.822298,1308.44581 C739.39219,1308.80715 737.912771,1309.17943 736.471985,1309.17943 C729.779317,1309.17943 724.335498,1304.58031 724.335498,1298.9277 C724.335498,1293.27515 729.779317,1288.67747 736.471985,1288.67747 C743.036571,1288.67747 748.583522,1293.37131 748.583522,1298.9277 C748.583522,1301.74649 746.807317,1304.6352 743.580454,1307.06116 Z M732.313878,1294.02927 C731.559707,1294.02927 730.805537,1294.78886 730.805537,1295.5418 C730.805537,1296.29994 731.559707,1297.04863 732.313878,1297.04863 C733.446985,1297.04863 734.195683,1296.29994 734.195683,1295.5418 C734.195683,1294.78762 733.446985,1294.02927 732.313878,1294.02927 Z M740.599668,1294.02927 C739.856659,1294.02927 739.102488,1294.78886 739.102488,1295.5418 C739.102488,1296.29994 739.856659,1297.04863 740.599668,1297.04863 C741.728805,1297.04863 742.491132,1296.29994 742.491132,1295.5418 C742.491132,1294.78762 741.730307,1294.02927 740.599668,1294.02927 Z" id="Fill-1"></path>
        </g>
    </g>
</svg>