<?xml version="1.0" encoding="UTF-8"?>
<svg width="64px" height="64px" viewBox="0 0 64 64" version="1.1" xmlns="http://www.w3.org/2000/svg" xmlns:xlink="http://www.w3.org/1999/xlink">
    <title>功能区-查看会议</title>
    <g id="2.0" stroke="none" stroke-width="1" fill="none" fill-rule="evenodd">
        <g id="切图" transform="translate(-3970.000000, -833.000000)">
            <g id="功能区-查看会议" transform="translate(3970.000000, 833.000000)">
                <circle id="椭圆形" fill="#E5EAF6" cx="32" cy="32" r="32"></circle>
                <g id="9_8活动运营" transform="translate(13.000000, 12.000000)" fill-rule="nonzero">
                    <path d="M30.1647267,37.5941333 C30.7131594,38.1662667 30.6961537,39.1768964 30.4410688,39.4650512 C29.9793909,40.0364419 29.1443887,40.1554471 28.5364341,39.7365013 L19.1833178,36.0614841 L9.8727156,39.7740867 C9.2481496,40.1846307 8.40302935,40.0200946 7.98508668,39.406585 C7.567144,38.7930753 7.73464529,37.9629158 8.35921127,37.5523717 L17.7888532,33.4221535 L17.7888532,1.26575277 C17.8292543,0.555555274 18.4273079,0 19.1514322,0 C19.8755564,0 20.47361,0.555555274 20.5140111,1.26575277 L20.5140111,33.4847958 L30.1647267,37.5941333 Z" id="路径" stroke="#002FA7" stroke-width="0.7" fill="#002FA7"></path>
                    <path d="M5.81703395,3.26530612 L33.3666395,3.26530612 C35.8841179,3.26530612 37.1428571,4.54477302 37.1428571,7.10370682 L37.1428571,25.5493545 C37.1428571,28.1082882 35.8841179,29.3877551 33.3666395,29.3877551 L5.81703395,29.3877551 C3.29955553,29.3877551 2.04081633,28.1082882 2.04081633,25.5493545 L2.04081633,7.10370682 C2.04081633,4.54477305 3.29955553,3.26530612 5.81703395,3.26530612 Z" id="路径" fill="#E5EAF6"></path>
                    <path d="M32.9333946,4.99848244 C34.321228,4.99848244 35.4462892,6.13993375 35.4462892,7.54798529 L35.4462892,25.9214025 C35.4462892,27.329454 34.321228,28.4709053 32.9333946,28.4709053 L5.43395231,28.4709053 C4.04611899,28.4709053 2.92105779,27.329454 2.92105779,25.9214025 L2.92105779,7.54798529 C2.92105779,6.13993375 4.04611899,4.99848244 5.43395231,4.99848244 L32.9333946,4.99848244 M32.9333946,2.44897959 L5.43395231,2.44897959 C2.65828566,2.44897959 0.408163265,4.73188221 0.408163265,7.54798529 L0.408163265,25.9214025 C0.408163265,28.7375055 2.65828566,31.0204082 5.43395231,31.0204082 L32.9333946,31.0204082 C35.7090613,31.0204082 37.9591837,28.7375055 37.9591837,25.9214025 L37.9591837,7.54798529 C37.9591837,4.73188221 35.7090613,2.44897959 32.9333946,2.44897959 Z" id="形状" stroke="#002FA7" stroke-width="0.7" fill="#002FA7"></path>
                    <path d="M31.52263,13.1275805 C31.1404034,12.9902196 30.7148854,13.0693155 30.4057214,13.3351931 L22.3823853,19.6355996 L13.8863499,14.0427707 C13.4634125,13.7654164 12.910997,13.8015701 12.5268169,14.1317475 L5.74170156,20.0592988 C5.41335302,20.2961924 5.2502265,20.7042982 5.32338374,21.1058357 C5.39945864,21.5138364 5.69799468,21.8425065 6.09308857,21.9532341 C6.48739903,22.068839 6.91261865,21.960357 7.20581399,21.6693556 L13.3425367,16.2841393 L21.813473,21.8557833 C22.2185473,22.1213936 22.7449797,22.0993182 23.126991,21.8007023 L31.7945366,15.0003308 C32.1211979,14.7721947 32.2915175,14.3758936 32.2337874,13.9782786 C32.1760572,13.5806637 31.9003057,13.2508052 31.52263,13.1275805 L31.52263,13.1275805 Z" id="路径" stroke="#002FA7" stroke-width="1.2" fill="#002FA7"></path>
                </g>
            </g>
        </g>
    </g>
</svg>