<?xml version="1.0" encoding="UTF-8"?>
<svg width="64px" height="64px" viewBox="0 0 64 64" version="1.1" xmlns="http://www.w3.org/2000/svg" xmlns:xlink="http://www.w3.org/1999/xlink">
    <title>功能区-预定会议</title>
    <g id="2.0" stroke="none" stroke-width="1" fill="none" fill-rule="evenodd">
        <g id="切图" transform="translate(-4223.000000, -833.000000)">
            <g id="功能区-预定会议" transform="translate(4223.000000, 833.000000)">
                <circle id="椭圆形" fill="#E5EAF6" cx="32" cy="32" r="32"></circle>
                <g id="编组-8" transform="translate(12.000000, 13.000000)" fill="#002FA7" stroke="#002FA7" stroke-width="0.909090909">
                    <g id="编组">
                        <path d="M37.6440572,9.80208062 C34.1862159,3.5283225 27.4845774,-0.257685306 20.3262939,0.0190897269 C13.1678544,0.295812744 6.77846554,4.58793238 3.81544863,11.109961 L2.25310793,7.88462939 C1.97029909,7.29456437 1.26278283,7.0456697 0.672977893,7.32827048 C0.0829128739,7.61113134 -0.166189857,8.31838752 0.116618986,8.90845254 L2.96915475,14.7616125 C3.10689207,15.0444733 3.35157347,15.2610663 3.64920676,15.3630689 C3.94689207,15.4652796 4.27282185,15.4447334 4.55521456,15.3059558 L10.4084265,12.4593498 C10.9720676,12.1571912 11.193498,11.4618986 10.9088687,10.8893108 C10.6241873,10.316723 9.93602081,10.0737061 9.35490247,10.3407022 L6.01102731,11.9682185 C9.5176593,4.39589077 18.1075163,0.612171651 26.0612224,3.13674902 C34.0149805,5.66111834 38.8507672,13.7059038 37.3486086,21.9143823 C35.8464499,30.1227048 28.4749025,35.9336281 20.1426268,35.4774512 C11.8104031,35.0215345 5.11724317,28.4409363 4.51968791,20.1176073 C4.47557867,19.4639792 3.90990897,18.9696229 3.25628088,19.0138882 C2.60260078,19.0579974 2.10824447,19.6236671 2.15256177,20.2773472 C2.72473342,27.9916775 7.9313394,34.5824187 15.3035631,36.9251495 C22.6759428,39.2676723 30.7318596,36.8912354 35.6522237,30.9222367 C40.5725878,24.953238 41.3682705,16.5919376 37.6617425,9.80208062 L37.6440572,9.80208062 Z" id="Fill-3"></path>
                    </g>
                    <path d="M21.0492588,8.31656697 C20.3955787,8.31656697 19.8656957,8.84650195 19.8656957,9.5003381 L19.8656957,18.490091 L15.1844993,23.1712874 C14.7218205,23.6339662 14.7218205,24.3837191 15.1844993,24.8461378 C15.6469181,25.3088166 16.396723,25.3088166 16.8591417,24.8461378 L21.8364109,19.8630429 C22.0911834,19.6362549 22.2358388,19.3105852 22.2330701,18.9694148 L22.2330701,9.5003381 C22.2330701,9.18642393 22.1082445,8.88530559 21.8863979,8.66340702 C21.6642913,8.44135241 21.363173,8.31656697 21.0492588,8.31656697 Z" id="Fill-4"></path>
                </g>
            </g>
        </g>
    </g>
</svg>