<?xml version="1.0" encoding="UTF-8"?>
<svg width="64px" height="64px" viewBox="0 0 64 64" version="1.1" xmlns="http://www.w3.org/2000/svg" xmlns:xlink="http://www.w3.org/1999/xlink">
    <title>功能区-SIG管理</title>
    <g id="2.0" stroke="none" stroke-width="1" fill="none" fill-rule="evenodd">
        <g id="切图" transform="translate(-4461.000000, -833.000000)">
            <g id="功能区-SIG管理" transform="translate(4461.000000, 833.000000)">
                <circle id="椭圆形" fill="#E5EAF6" cx="32" cy="32" r="32"></circle>
                <g id="管理" transform="translate(12.000000, 14.000000)" fill="#002FA7" fill-rule="nonzero" stroke="#002FA7" stroke-width="0.8">
                    <path d="M26.5894397,9.73060345 C26.5894397,4.36961207 22.1551724,0.0107758621 16.6971983,0.0107758621 C11.2392241,0.0107758621 6.8049569,4.36961207 6.8049569,9.73060345 C6.8049569,13.1573276 8.62068966,16.1799569 11.3577586,17.9094828 C4.74137931,20.2478448 0,26.4709052 0,33.7553879 C0,34.455819 0.565732759,35.0215517 1.26616379,35.0215517 C1.96659483,35.0215517 2.53232759,34.455819 2.53232759,33.7553879 C2.53232759,25.8674569 9.08943966,19.450431 17.1551724,19.450431 C17.2413793,19.450431 17.3275862,19.4396552 17.4084052,19.4234914 C22.5323276,19.0625 26.5894397,14.8545259 26.5894397,9.73060345 Z M16.7025862,16.9181034 C12.6454741,16.9181034 9.34267241,13.6961207 9.34267241,9.73060345 C9.34267241,5.76508621 12.6454741,2.54310345 16.7025862,2.54310345 C20.7596983,2.54310345 24.0571121,5.76508621 24.0571121,9.73060345 C24.0571121,13.6907328 20.7596983,16.9181034 16.7025862,16.9181034 Z M32.9310345,36.5193966 L29.6551724,34.8329741 C29.3480603,34.6767241 28.987069,34.6767241 28.6799569,34.8329741 L25.4040948,36.5193966 L20.7974138,33.2435345 L21.4331897,29.6282328 C21.487069,29.3157328 21.3793103,28.9978448 21.1476293,28.7715517 L18.4698276,26.2176724 L20.2424569,20.8782328 L23.9170259,20.3556034 C24.2564655,20.3071121 24.5420259,20.1023707 24.6928879,19.8114224 L26.3415948,16.5409483 L32.0043103,16.5409483 L33.6530172,19.8114224 C33.7984914,20.1023707 34.0894397,20.3071121 34.4288793,20.3556034 L38.1034483,20.8782328 L39.8760776,26.2176724 L37.1928879,28.7715517 C36.9612069,28.9924569 36.8534483,29.3157328 36.9073276,29.6282328 L37.5377155,33.2435345 L32.9310345,36.5193966 L32.9310345,36.5193966 Z M23.5668103,32.106681 L25.6142241,33.5668103 L27.5215517,32.5862069 C28.5506466,32.0528017 29.7844828,32.0528017 30.8135776,32.5862069 L32.7155172,33.5668103 L34.762931,32.106681 L34.4073276,30.0646552 C34.2079741,28.9170259 34.5905172,27.7478448 35.4418103,26.9396552 L36.955819,25.4903017 L36.1853448,23.1627155 L34.0678879,22.8609914 C32.9094828,22.6939655 31.9073276,21.9827586 31.3900862,20.9482759 L30.4418103,19.0732759 L27.887931,19.0732759 L26.9450431,20.9482759 C26.4224138,21.9827586 25.4202586,22.6993534 24.2672414,22.8609914 L22.1497845,23.1627155 L21.3793103,25.4903017 L22.8987069,26.9396552 C23.7446121,27.7478448 24.1325431,28.9170259 23.9331897,30.0646552 L23.5668103,32.106681 Z" id="形状"></path>
                </g>
            </g>
        </g>
    </g>
</svg>