<?xml version="1.0" encoding="UTF-8"?>
<svg width="64px" height="64px" viewBox="0 0 64 64" version="1.1" xmlns="http://www.w3.org/2000/svg" xmlns:xlink="http://www.w3.org/1999/xlink">
    <title>功能区-查看会议</title>
    <g id="mindspore小程序1.0" stroke="none" stroke-width="1" fill="none" fill-rule="evenodd">
        <g id="切图规范" transform="translate(-2021.000000, -1238.000000)">
            <g id="功能区-查看会议" transform="translate(2021.000000, 1238.000000)">
                <circle id="椭圆形" fill="#F4FAFF" cx="32" cy="32" r="32"></circle>
                <g id="编组" transform="translate(12.000000, 11.000000)">
                    <line x1="34.263285" y1="10.915695" x2="0.787185" y2="10.915695" id="Stroke-1" stroke="#6D7278" stroke-width="1.5"></line>
                    <path d="M31.496745,34.539645 L3.555195,34.539645 C2.026395,34.539645 0.787395,33.300645 0.787395,31.772895 L0.787395,7.042245 C0.787395,5.514495 2.026395,4.275495 3.555195,4.275495 L31.496745,4.275495 C33.024495,4.275495 34.263495,5.514495 34.263495,7.042245 L34.263495,31.772895 C34.263495,33.300645 33.024495,34.539645 31.496745,34.539645 Z" id="Stroke-3" stroke="#6D7278" stroke-width="1.5"></path>
                    <path d="M8.97099,7.76412 L8.97099,7.76412 C7.90734,7.76412 7.04529,6.90207 7.04529,5.83842 L7.04529,2.71362 C7.04529,1.64997 7.90734,0.78687 8.97099,0.78687 C10.03569,0.78687 10.89774,1.64997 10.89774,2.71362 L10.89774,5.83842 C10.89774,6.90207 10.03569,7.76412 8.97099,7.76412" id="Fill-5" fill="#B8ECFF"></path>
                    <path d="M8.97099,7.76412 L8.97099,7.76412 C7.90734,7.76412 7.04529,6.90207 7.04529,5.83842 L7.04529,2.71362 C7.04529,1.64997 7.90734,0.78687 8.97099,0.78687 C10.03569,0.78687 10.89774,1.64997 10.89774,2.71362 L10.89774,5.83842 C10.89774,6.90207 10.03569,7.76412 8.97099,7.76412 Z" id="Stroke-7" stroke="#6D7278" stroke-width="1.5"></path>
                    <path d="M17.52576,7.76412 L17.52576,7.76412 C16.46211,7.76412 15.60006,6.90207 15.60006,5.83842 L15.60006,2.71362 C15.60006,1.64997 16.46211,0.78687 17.52576,0.78687 C18.58941,0.78687 19.45146,1.64997 19.45146,2.71362 L19.45146,5.83842 C19.45146,6.90207 18.58941,7.76412 17.52576,7.76412" id="Fill-9" fill="#FFFFFF"></path>
                    <path d="M17.52576,7.76412 L17.52576,7.76412 C16.46211,7.76412 15.60006,6.90207 15.60006,5.83842 L15.60006,2.71362 C15.60006,1.64997 16.46211,0.78687 17.52576,0.78687 C18.58941,0.78687 19.45146,1.64997 19.45146,2.71362 L19.45146,5.83842 C19.45146,6.90207 18.58941,7.76412 17.52576,7.76412 Z" id="Stroke-11" stroke="#6D7278" stroke-width="1.5"></path>
                    <path d="M26.079585,7.76412 L26.079585,7.76412 C25.015935,7.76412 24.153885,6.90207 24.153885,5.83842 L24.153885,2.71362 C24.153885,1.64997 25.015935,0.78687 26.079585,0.78687 C27.144285,0.78687 28.006335,1.64997 28.006335,2.71362 L28.006335,5.83842 C28.006335,6.90207 27.144285,7.76412 26.079585,7.76412" id="Fill-13" fill="#B8ECFF"></path>
                    <path d="M26.079585,7.76412 L26.079585,7.76412 C25.015935,7.76412 24.153885,6.90207 24.153885,5.83842 L24.153885,2.71362 C24.153885,1.64997 25.015935,0.78687 26.079585,0.78687 C27.144285,0.78687 28.006335,1.64997 28.006335,2.71362 L28.006335,5.83842 C28.006335,6.90207 27.144285,7.76412 26.079585,7.76412 Z" id="Stroke-15" stroke="#6D7278" stroke-width="1.5"></path>
                    <g transform="translate(13.650000, 14.460495)">
                        <path d="M4.19979,4.06518 C6.56544,1.73523 9.81309,0.29778 13.39569,0.29778 C20.63439,0.29778 26.50284,6.16623 26.50284,13.40598 C26.50284,20.64468 20.63439,26.51208 13.39569,26.51208 C6.15699,26.51208 0.28854,20.64468 0.28854,13.40598 C0.28854,13.34193 0.28854,13.27893 0.28959,13.21698" id="Fill-17" fill="#F4FAFF"></path>
                        <path d="M4.19979,4.06518 C6.56544,1.73523 9.81309,0.29778 13.39569,0.29778 C20.63439,0.29778 26.50284,6.16623 26.50284,13.40598 C26.50284,20.64468 20.63439,26.51208 13.39569,26.51208 C6.15699,26.51208 0.28854,20.64468 0.28854,13.40598 C0.28854,13.34193 0.28854,13.27893 0.28959,13.21698" id="Stroke-19" stroke="#6D7278" stroke-width="1.5"></path>
                    </g>
                    <path d="M33.86124,27.86595 C33.86124,31.6302 30.80994,34.6815 27.04569,34.6815 C23.28144,34.6815 20.23014,31.6302 20.23014,27.86595 C20.23014,24.1017 23.28144,21.04935 27.04569,21.04935 C30.80994,21.04935 33.86124,24.1017 33.86124,27.86595" id="Fill-20" fill="#F4FAFF"></path>
                    <path d="M33.86124,27.86595 C33.86124,31.6302 30.80994,34.6815 27.04569,34.6815 C23.28144,34.6815 20.23014,31.6302 20.23014,27.86595 C20.23014,24.1017 23.28144,21.04935 27.04569,21.04935 C30.80994,21.04935 33.86124,24.1017 33.86124,27.86595 Z" id="Stroke-22" stroke="#6D7278" stroke-width="1.5"></path>
                    <g transform="translate(30.450000, 32.310495)">
                        <path d="M4.064445,3.45807 C1.466745,0.86142 3.381945,2.77557 0.839895,0.23352" id="Fill-24" fill="#FFFFFF"></path>
                        <path d="M4.064445,3.45807 C1.466745,0.86142 3.381945,2.77557 0.839895,0.23352" id="Stroke-26" stroke="#6D7278" stroke-width="1.5"></path>
                    </g>
                    <path d="M13.93896,24.12627 C12.59181,24.12627 11.50086,25.21827 11.50086,26.56437 C11.50086,27.91047 12.59181,29.00247 13.93896,29.00247 C15.28506,29.00247 16.37601,27.91047 16.37601,26.56437 C16.37601,25.21827 15.28506,24.12627 13.93896,24.12627" id="Fill-27" fill="#B8ECFF"></path>
                    <path d="M13.93896,24.12627 C12.59181,24.12627 11.50086,25.21827 11.50086,26.56437 C11.50086,27.91047 12.59181,29.00247 13.93896,29.00247 C15.28506,29.00247 16.37601,27.91047 16.37601,26.56437 C16.37601,25.21827 15.28506,24.12627 13.93896,24.12627 Z" id="Stroke-29" stroke="#6D7278" stroke-width="1.5"></path>
                </g>
            </g>
        </g>
    </g>
</svg>