<?xml version="1.0" encoding="UTF-8"?>
<svg width="64px" height="64px" viewBox="0 0 64 64" version="1.1" xmlns="http://www.w3.org/2000/svg" xmlns:xlink="http://www.w3.org/1999/xlink">
    <title>功能区-预定会议</title>
    <defs>
        <polygon id="path-1" points="0.498808858 0.92085 7.27011775 0.92085 7.27011775 7.711725 0.498808858 7.711725"></polygon>
    </defs>
    <g id="mindspore小程序1.0" stroke="none" stroke-width="1" fill="none" fill-rule="evenodd">
        <g id="切图规范" transform="translate(-2259.000000, -1238.000000)">
            <g id="功能区-预定会议" transform="translate(2259.000000, 1238.000000)">
                <circle id="椭圆形" fill="#F4FAFF" cx="32" cy="32" r="32"></circle>
                <g id="编组" transform="translate(14.000000, 11.000000)">
                    <polyline id="Stroke-1" stroke="#6D7278" stroke-width="1.5" points="32.86647 11.931675 36.51627 11.931675 36.51627 36.076425 0.78687 36.076425 0.78687 11.931675 4.52487 11.931675"></polyline>
                    <path d="M18.651465,40.294065 L18.651465,35.405265 L18.651465,40.294065 Z" id="Fill-3" fill="#FFFFFF"></path>
                    <line x1="18.651465" y1="40.29396" x2="18.651465" y2="35.40621" id="Stroke-4" stroke="#6D7278" stroke-width="1.5"></line>
                    <path d="M11.654685,40.292175 L25.650135,40.292175 L11.654685,40.292175 Z" id="Fill-6" fill="#FFFFFF"></path>
                    <g transform="translate(2.100000, 0.129360)">
                        <line x1="9.554265" y1="40.1625" x2="23.549715" y2="40.1625" id="Stroke-7" stroke="#6D7278" stroke-width="1.5"></line>
                        <path d="M24.486,10.769745 C23.06955,9.353295 21.4074,7.692195 20.02245,6.306195" id="Stroke-9" stroke="#6D7278" stroke-width="1.5"></path>
                        <path d="M17.882445,14.277585 C17.018295,13.412385 16.003995,12.398085 15.157695,11.552835" id="Stroke-11" stroke="#6D7278" stroke-width="1.5"></path>
                        <path d="M12.93495,21.98595 C11.571,20.62305 9.9729,19.0239 8.63835,17.6904" id="Stroke-13" stroke="#6D7278" stroke-width="1.5"></path>
                        <g>
                            <mask id="mask-2" fill="white">
                                <use xlink:href="#path-1"></use>
                            </mask>
                            <g id="Clip-16"></g>
                            <path d="M3.814125,0.920325 C3.028725,0.920325 2.222325,1.206975 1.488375,1.961925 C-0.439425,3.941175 0.826875,6.293175 2.098425,7.531125 C2.221275,7.650825 2.375625,7.711725 2.519475,7.711725 C2.634975,7.711725 2.742075,7.672875 2.821875,7.590975 L7.151025,3.144225 C7.329525,2.961525 7.310625,2.654925 7.072275,2.422875 C6.307875,1.678425 5.088825,0.920325 3.814125,0.920325 M3.814125,2.495325 C4.266675,2.495325 4.743375,2.681175 5.161275,2.930025 L2.550975,5.611725 C2.347275,5.293575 2.198175,4.965975 2.126775,4.661475 C1.981875,4.050375 2.133075,3.557925 2.616075,3.060225 C2.991975,2.674875 3.372075,2.495325 3.814125,2.495325" id="Fill-15" fill="#6D7278" mask="url(#mask-2)"></path>
                        </g>
                        <path d="M8.299095,4.2231 C7.984095,4.2231 7.669095,4.3449 7.432845,4.5885 L4.273395,7.83405 C3.808245,8.31285 3.817695,9.0783 4.295445,9.54345 L8.830395,13.1145 C9.064545,13.3434 9.370095,13.4568 9.673545,13.4568 C9.987495,13.4568 10.302495,13.335 10.539795,13.09035 L12.856095,10.7121 C13.321245,10.2333 13.310745,9.46785 12.832995,9.0027 L9.142245,4.5654 C8.907045,4.3365 8.602545,4.2231 8.299095,4.2231 M11.492145,9.85425 L9.645195,11.7516 L5.690895,8.63625 L8.272845,5.98395 L11.492145,9.85425 Z" id="Fill-17" fill="#6D7278"></path>
                        <polygon id="路径备份" fill="#B8ECFF" points="11.492145 9.85425 9.645195 11.7516 5.690895 8.63625 8.272845 5.98395"></polygon>
                        <polygon id="Stroke-19" stroke="#6D7278" stroke-width="1.5" fill="#B8ECFF" points="21.436485 21.51114 20.022135 22.96329 23.225685 24.66744 26.428185 26.37159 24.638985 23.21529 22.850835 20.05899"></polygon>
                        <polygon id="Stroke-21" stroke="#6D7278" stroke-width="1.5" points="9.860865 28.76895 3.741465 22.6485 23.846865 2.54205 29.967315 8.6625"></polygon>
                        <path d="M18.740715,31.156545 C18.740715,32.365095 17.760015,33.344745 16.551465,33.344745 C15.342915,33.344745 14.363265,32.365095 14.363265,31.156545 C14.363265,29.947995 15.342915,28.967295 16.551465,28.967295 C17.760015,28.967295 18.740715,29.947995 18.740715,31.156545 Z" id="Stroke-23" stroke="#6D7278" stroke-width="1.5" fill="#B8ECFF"></path>
                    </g>
                </g>
            </g>
        </g>
    </g>
</svg>