<?xml version="1.0" encoding="UTF-8"?>
<svg width="64px" height="64px" viewBox="0 0 64 64" version="1.1" xmlns="http://www.w3.org/2000/svg" xmlns:xlink="http://www.w3.org/1999/xlink">
    <title>功能区-SIG管理</title>
    <g id="mindspore小程序1.0" stroke="none" stroke-width="1" fill="none" fill-rule="evenodd">
        <g id="切图规范" transform="translate(-1768.000000, -1238.000000)">
            <g id="编组" transform="translate(1768.000000, 1238.000000)">
                <circle id="椭圆形" fill="#F4FAFF" cx="32" cy="32" r="32"></circle>
                <g transform="translate(12.000000, 11.000000)" stroke="#6D7278" stroke-width="1.5">
                    <path d="M3.88838333,22.9325833 C2.76605,22.9325833 1.85721667,22.0225833 1.85721667,20.9014167 L1.85721667,16.83675 C1.85721667,15.7155833 2.76605,14.8055833 3.88838333,14.8055833 L6.50871667,14.8055833 C6.78755,13.86875 7.16671667,12.9645833 7.63571667,12.10825 L5.77255,10.2450833 C5.39221667,9.86591667 5.17755,9.34908333 5.17755,8.81125 C5.17755,8.27458333 5.39221667,7.75891667 5.77255,7.37858333 L8.65188333,4.50041667 C9.45455,3.73275 10.71805,3.73275 11.51955,4.50041667 L13.38155,6.36125 C14.2378833,5.89225 15.14205,5.51541667 16.0788833,5.23658333 L16.0788833,2.61508333 C16.0788833,1.49391667 16.9888833,0.583916667 18.11005,0.583916667 L22.1747167,0.583916667 C23.2958833,0.583916667 24.2058833,1.49391667 24.2058833,2.61508333 L24.2058833,5.23658333 C25.1427167,5.51541667 26.0457167,5.89341667 26.9032167,6.36241667 L28.7652167,4.50041667 C29.5678833,3.73275 30.83255,3.73275 31.63405,4.50041667 L34.5122167,7.37741667 C34.89255,7.75775 35.10605,8.27341667 35.10605,8.81125 C35.10605,9.34908333 34.89255,9.86475 34.5122167,10.2450833 L32.64905,12.1070833 C33.1192167,12.9645833 33.49605,13.86875 33.77605,14.8055833 L36.3963833,14.8055833 C37.5187167,14.8055833 38.42755,15.7155833 38.42755,16.83675 L38.42755,20.9014167 C38.42755,22.0225833 37.5187167,22.9325833 36.3963833,22.9325833" id="Stroke-1"></path>
                    <path d="M10.6605333,18.8692 C10.6605333,13.6332 14.9060333,9.3877 20.1420333,9.3877 C25.3780333,9.3877 29.6235333,13.6332 29.6235333,18.8692" id="Stroke-3"></path>
                    <path d="M20.1420333,23.5842833 C17.8985333,23.5842833 16.0797,21.7642833 16.0797,19.5207833 C16.0797,17.2761167 17.8985333,15.4572833 20.1420333,15.4572833 C22.3867,15.4572833 24.2055333,17.2761167 24.2055333,19.5207833 C24.2032,21.7642833 22.3855333,23.58195 20.1420333,23.5842833 Z" id="Stroke-5" fill="#B8ECFF"></path>
                    <path d="M31.6559833,20.2238167 C30.1603167,20.2238167 28.9469833,21.43715 28.9469833,22.9328167 C28.9469833,24.4284833 30.1603167,25.6418167 31.6559833,25.6418167 C33.15165,25.6418167 34.3638167,24.4284833 34.3638167,22.9328167 C34.3638167,21.43715 33.15165,20.2238167 31.6559833,20.2238167 Z" id="Stroke-7" fill="#B8ECFF"></path>
                    <path d="M8.33746667,20.2238167 C6.84063333,20.2238167 5.62846667,21.43715 5.62846667,22.9328167 C5.62846667,24.4284833 6.84063333,25.6418167 8.33746667,25.6418167 C9.83313333,25.6418167 11.0453,24.4284833 11.0453,22.9328167 C11.0453,21.43715 9.83313333,20.2238167 8.33746667,20.2238167 Z" id="Stroke-9" fill="#B8ECFF"></path>
                    <path d="M16.08145,30.8343 L16.08145,41.0064667 L14.8261167,41.0064667 C12.90345,41.0064667 11.35295,39.4466333 11.35295,37.5344667 L11.35295,31.1679667 C11.35295,27.8628 14.0316167,25.1748 17.3367833,25.1748 L22.94845,25.1748 C26.2536167,25.1748 28.9311167,27.8628 28.9311167,31.1679667 L28.9311167,37.5344667 C28.9311167,39.4466333 27.3817833,41.0064667 25.4591167,41.0064667 L24.2037833,41.0064667 L24.2037833,30.8343" id="Stroke-11"></path>
                    <path d="M28.1492167,28.2065 L34.59155,28.2065 C37.2643833,28.2065 39.4297167,30.38 39.4297167,33.0516667 L39.4297167,38.199 C39.4297167,39.746 38.1778833,41.006 36.6227167,41.006 L35.6077167,41.006 L35.6077167,32.7821667" id="Stroke-13"></path>
                    <line x1="36.1586167" y1="41.0062333" x2="30.2062833" y2="41.0062333" id="Stroke-15"></line>
                    <path d="M4.40568333,32.7825167 L4.40568333,41.00635 L3.39068333,41.00635 C1.83668333,41.00635 0.583683333,39.7451833 0.583683333,38.19935 L0.583683333,33.0520167 C0.583683333,30.3791833 2.74785,28.20685 5.42068333,28.20685 L12.1360167,28.20685" id="Stroke-17"></path>
                    <line x1="3.8542" y1="41.0062333" x2="9.80653333" y2="41.0062333" id="Stroke-19"></line>
                </g>
            </g>
        </g>
    </g>
</svg>