<?xml version="1.0" encoding="UTF-8"?>
<svg width="64px" height="64px" viewBox="0 0 64 64" version="1.1" xmlns="http://www.w3.org/2000/svg" xmlns:xlink="http://www.w3.org/1999/xlink">
    <title>功能区-发起人管理</title>
    <g id="2.0" stroke="none" stroke-width="1" fill="none" fill-rule="evenodd">
        <g id="切图" transform="translate(-3099.000000, -845.000000)">
            <g id="功能区-发起人管理" transform="translate(3099.000000, 845.000000)">
                <circle id="椭圆形" fill="#E5EAF6" cx="32" cy="32" r="32"></circle>
                <g id="编组-9" transform="translate(13.000000, 12.000000)" stroke="#002FA7">
                    <path d="M7.79765996,37.440585 C4.87488117,37.440585 2.49857404,35.0368556 2.49857404,32.0815356 C2.49857404,29.1262157 4.87488117,26.7224863 7.79510055,26.7224863 L21.1662888,26.7224863 C21.8555759,26.7224863 22.4143327,26.1638026 22.4143327,25.4745155 C22.4143327,24.7852285 21.8555759,24.2264717 21.1662888,24.2264717 L7.79510055,24.2264717 C3.49945155,24.2264717 0,27.7511517 0,32.0815356 C0.00255941499,36.4122852 3.49689214,39.9365996 7.79765996,39.9365996 L21.2737112,39.9365996 C21.9629982,39.9365996 22.5216819,39.3779159 22.5216819,38.6886289 C22.5216819,37.9993419 21.9629982,37.440585 21.2737112,37.440585 L7.79765996,37.440585 Z M20.3001828,22.3172212 C25.0176965,22.3172212 29.2087751,19.5863985 30.983181,15.358245 C31.2402925,14.7249726 30.9398172,14.0028519 30.3099086,13.7383547 C29.6797806,13.4737843 28.9539305,13.7654845 28.6820475,14.3921755 C27.3017916,17.6894333 24.0068007,19.8212066 20.3001828,19.8212066 C15.3156124,19.8212066 11.262011,15.9346984 11.262011,11.1597806 C11.262011,9.43246801 11.791298,7.76511883 12.7896161,6.33484461 C14.4744424,3.93140768 17.2826325,2.49601463 20.3001828,2.49601463 C23.3155393,2.49601463 26.12117,3.92884826 27.8033638,6.33001828 C28.1526874,6.83159049 28.4497989,7.36577697 28.6820475,7.91992687 C28.9502742,8.55553931 29.6826325,8.85316271 30.318245,8.58522852 C30.9534918,8.31700183 31.2514077,7.58457038 30.983181,6.94903108 C30.6783912,6.22691042 30.2976234,5.53908592 29.8477514,4.89718464 C27.6985009,1.82961609 24.1268007,0 20.3001828,0 C16.4688117,0 12.8970384,1.8321755 10.7478611,4.90464351 C9.45638026,6.73389397 8.76314442,8.91824497 8.76372906,11.1572212 C8.76372906,17.3126143 13.937989,22.3172212 20.2953565,22.3172212" id="Fill-1" stroke-width="0.909090909" fill="#002FA7"></path>
                    <path d="M25.4570071,28.8643376 C24.2401188,30.9751147 24.2417163,33.5750018 25.461134,35.6843141 C26.6805517,37.7940258 28.9322144,39.0923714 31.3685204,39.0909091 C35.1328734,39.0893087 38.1834144,36.0358661 38.1818182,32.2703975 C38.1807519,28.5049289 35.128214,25.4534838 31.363861,25.4545455 C28.9234282,25.452019 26.6733629,26.7534274 25.4570071,28.8643376 Z" id="Fill-3" stroke-width="3.18181818"></path>
                </g>
            </g>
        </g>
    </g>
</svg>