<?xml version="1.0" encoding="UTF-8"?>
<svg width="64px" height="64px" viewBox="0 0 64 64" version="1.1" xmlns="http://www.w3.org/2000/svg" xmlns:xlink="http://www.w3.org/1999/xlink">
    <title>功能区-查看活动</title>
    <g id="2.0" stroke="none" stroke-width="1" fill="none" fill-rule="evenodd">
        <g id="切图" transform="translate(-2861.000000, -845.000000)">
            <g id="功能区-查看活动" transform="translate(2861.000000, 845.000000)">
                <circle id="椭圆形" fill="#E5EAF6" cx="32" cy="32" r="32"></circle>
                <g id="编组-3" transform="translate(13.000000, 12.000000)" stroke="#002FA7" stroke-width="3.69747899">
                    <path d="M19.0044272,39.1534392 L2.11640212,39.1534392 C0.947545503,39.1534392 9.43667443e-15,38.2058937 7.96126315e-15,37.037037 L7.96126315e-15,5.85249973 C7.81811949e-15,4.68364312 0.947545503,3.73609761 2.11640212,3.73609761 L35.8924522,3.73609761 C37.0613088,3.73609761 38.0088543,4.68364312 38.0088543,5.85249973 L38.0088543,21.4446584 L38.0088543,21.4446584" id="Stroke-1" stroke-linecap="round"></path>
                    <line x1="10.3660512" y1="3.15962631e-14" x2="10.3660512" y2="3.09822543" id="Stroke-3" stroke-linecap="round"></line>
                    <line x1="27.6428032" y1="3.15962631e-14" x2="27.6428032" y2="3.09822543" id="Stroke-5" stroke-linecap="round"></line>
                    <line x1="7.96126315e-15" y1="16.6936616" x2="38.0088543" y2="16.6936616" id="Stroke-7"></line>
                    <path d="M38.0088543,32.2427384 C38.0088543,36.0594677 34.914716,39.1534392 31.098261,39.1534392 C27.281591,39.1534392 24.1874528,36.0594677 24.1874528,32.2427384 C24.1874528,28.426009 27.281591,25.3320376 31.098261,25.3320376 C34.914716,25.3320376 38.0088543,28.426009 38.0088543,32.2427384 Z" id="Stroke-9"></path>
                </g>
            </g>
        </g>
    </g>
</svg>