<?xml version="1.0" encoding="UTF-8"?>
<svg width="40px" height="40px" viewBox="0 0 40 40" version="1.1" xmlns="http://www.w3.org/2000/svg" xmlns:xlink="http://www.w3.org/1999/xlink">
    <title>编组 2</title>
    <g id="2.0" stroke="none" stroke-width="1" fill="none" fill-rule="evenodd">
        <g id="切图" transform="translate(-3073.000000, -1102.000000)">
            <g id="编组-2" transform="translate(3073.000000, 1102.000000)">
                <path d="M20,0 C8.954305,0 0,8.954305 0,20 C0,31.045695 8.954305,40 20,40 C31.045695,40 40,31.045695 40,20 C40,14.6956702 37.8928632,9.60859195 34.1421356,5.85786438 C30.3914081,2.10713681 25.3043298,0 20,0 Z" id="Style" fill="#FFFFFF"></path>
                <path d="M16.2937888,24.373913 L11.5937888,19.6596273 L9.56521739,21.6881988 L14.3223602,26.3881988 C14.8615569,26.9230174 15.5914946,27.2211609 16.3509317,27.216818 C17.0855865,27.2025217 17.7865097,26.9057805 18.3080745,26.3881988 L30.5080745,14.1881988 L28.4795031,12.173913 L16.2937888,24.373913 Z" id="Path" fill="#002FA7"></path>
            </g>
        </g>
    </g>
</svg>