<?xml version="1.0" encoding="UTF-8"?>
<svg width="52px" height="52px" viewBox="0 0 52 52" version="1.1" xmlns="http://www.w3.org/2000/svg" xmlns:xlink="http://www.w3.org/1999/xlink">
    <title>收藏备份 3</title>
    <g id="2.0" stroke="none" stroke-width="1" fill="none" fill-rule="evenodd">
        <g id="切图" transform="translate(-4929.000000, -5054.000000)" fill="#FFBE00" fill-rule="nonzero">
            <g id="收藏备份-3" transform="translate(4929.000000, 5056.000000)">
                <path d="M50.6240689,22.4935215 C51.8741311,21.3187446 52.3123712,19.5980421 51.7735513,18.0086381 C51.2347314,16.4123236 49.8266154,15.2720991 48.1023918,15.0371437 L35.9394309,13.3371725 C35.75264,13.3095306 35.5945861,13.1989634 35.5083749,13.040023 L30.0770705,2.43938955 C29.3083541,0.932911006 27.7493685,0 26.0035921,0 C24.2649999,0 22.6988301,0.932911006 21.9301138,2.43938955 L16.491625,13.040023 C16.4125981,13.1989634 16.24736,13.3095306 16.0605691,13.3371725 L3.89760814,15.0371437 C2.17338452,15.272099 0.765268536,16.4123236 0.22644868,18.0086381 C-0.312371176,19.6049525 0.125868971,21.3256551 1.37593108,22.4935215 L10.1694716,30.7515116 C10.3059727,30.8828102 10.3634468,31.0555715 10.3347097,31.2352433 L8.25845711,42.8862655 C7.96390221,44.5378635 8.66077595,46.1756406 10.0688919,47.1638353 C10.8663454,47.7166714 11.8002998,48 12.7342543,48 C13.4598651,48 14.1854759,47.8341491 14.8536125,47.4886265 L25.7234058,41.9879067 C25.8886439,41.9049812 26.0898033,41.9049812 26.2550414,41.9879067 L37.1320189,47.4886265 C37.7929713,47.8272387 38.5042135,47.9930895 39.2513771,47.9930895 C40.2140686,47.9930895 41.1408388,47.7028506 41.9239237,47.1500144 C43.3320397,46.1687302 44.0289135,44.5309531 43.7343586,42.8724445 L41.6509216,31.2214224 C41.6221846,31.0486611 41.6796587,30.8620789 41.8161598,30.7376908 L50.6240689,22.4935215 L50.6240689,22.4935215 Z" id="形状"></path>
            </g>
        </g>
    </g>
</svg>