<?xml version="1.0" encoding="UTF-8"?>
<svg width="40px" height="40px" viewBox="0 0 40 40" version="1.1" xmlns="http://www.w3.org/2000/svg" xmlns:xlink="http://www.w3.org/1999/xlink">
    <title>删除</title>
    <g id="2.0" stroke="none" stroke-width="1" fill="none" fill-rule="evenodd">
        <g id="切图" transform="translate(-2873.000000, -1102.000000)">
            <g id="编组" transform="translate(2873.000000, 1102.000000)">
                <circle id="椭圆形" fill="#40ADFF" cx="20" cy="20" r="20"></circle>
                <g id="编组-3备份-2" transform="translate(20.434783, 20.118605) rotate(-315.000000) translate(-20.434783, -20.118605) translate(7.434783, 7.118605)" fill="#FFFFFF" fill-rule="nonzero">
                    <g id="添加" transform="translate(0.000000, 0.000000)">
                        <path d="M23.6180205,11.420618 L14.4765993,11.420618 L14.4765993,2.28178439 C14.4765992,1.43752747 13.7921938,0.753122035 12.9479369,0.753122035 C12.1036799,0.753122035 11.4192745,1.43752747 11.4192744,2.28178439 L11.4192744,11.420618 L2.28044084,11.420618 C1.4361839,11.420618 0.75177842,12.1050235 0.75177842,12.9492804 C0.75177842,13.7935374 1.4361839,14.4779428 2.28044084,14.4779428 L11.4192744,14.4779428 L11.4192744,23.619364 C11.4192744,24.463621 12.1036799,25.1480264 12.9479369,25.1480264 C13.7921938,25.1480264 14.4765993,24.463621 14.4765993,23.619364 L14.4765993,14.4779428 L23.6180205,14.4779428 C24.4622774,14.4779428 25.1466829,13.7935374 25.1466829,12.9492804 C25.1466829,12.1050235 24.4622774,11.420618 23.6180205,11.420618 L23.6180205,11.420618 Z" id="路径"></path>
                    </g>
                </g>
            </g>
        </g>
    </g>
</svg>