<?xml version="1.0" encoding="UTF-8"?>
<svg width="52px" height="52px" viewBox="0 0 52 52" version="1.1" xmlns="http://www.w3.org/2000/svg" xmlns:xlink="http://www.w3.org/1999/xlink">
    <title>分享 (1)备份</title>
    <g id="2.0" stroke="none" stroke-width="1" fill="none" fill-rule="evenodd">
        <g id="切图" transform="translate(-5185.000000, -5053.000000)" fill="#6D7278" fill-rule="nonzero" stroke="#6D7278" stroke-width="1.3">
            <g id="分享-(1)备份" transform="translate(5187.000000, 5055.000000)">
                <path d="M34.5834773,21.2871116 L43.9005157,21.2871116 C44.6295665,21.2871116 45.2205259,21.8787287 45.2205259,22.6079441 L45.2205259,43.8996934 C45.2205259,44.6291828 44.6190959,45.2205259 43.9005157,45.2205259 L3.99234145,45.2205259 C3.26329061,45.2205259 2.67233127,44.6289087 2.67233127,43.8996934 L2.67233127,22.6079989 C2.67233127,21.8785094 3.27381605,21.2871664 3.99234145,21.2871664 L13.3093799,21.2871664 C14.0436935,21.2871664 14.6390384,20.6918763 14.6390384,19.9575079 C14.6390384,19.2231943 14.0436935,18.6278494 13.3093799,18.6278494 L2.67189273,18.6278494 C1.19624866,18.6278494 0.0130142679,19.8131669 0.0130142679,21.2753801 L0.0130142679,45.2323122 C0.0130142679,46.6968826 1.20343002,47.8798429 2.67189273,47.8798429 L45.2209096,47.8798429 C46.6965537,47.8798429 47.8798429,46.6945254 47.8798429,45.2323122 L47.8798429,21.2753801 C47.8798429,19.8108097 46.6893723,18.6278494 45.2209096,18.6278494 L34.5834773,18.6278494 C33.8491637,18.6278494 33.2538188,19.2231943 33.2538188,19.9575079 C33.2538188,20.6918215 33.8491637,21.2871116 34.5834773,21.2871116 Z M24.1958046,0.0363676071 C24.0211105,0.00343915529 23.8416344,0.00532073092 23.667669,0.0419044286 C23.2442943,-0.0480003214 22.7879728,0.0719457857 22.4604783,0.399440304 L12.915005,9.94491359 C12.4007389,10.4591797 12.4019449,11.2998989 12.9211997,11.8190989 C13.4440726,12.3420266 14.2795838,12.3411495 14.7954398,11.8252936 L22.6168797,4.00385362 L22.6168797,38.5748099 C22.6168797,39.30715 23.2121698,39.9020015 23.9465382,39.9020015 C24.6859501,39.9020015 25.2761967,39.3078078 25.2761967,38.5748099 L25.2761967,4.07067916 L33.0307563,11.8252936 C33.5450224,12.3395597 34.3857416,12.3384085 34.9049964,11.8190989 C35.4278693,11.2962259 35.427047,10.4607147 34.911191,9.94491359 L25.3656081,0.399440304 C25.0489679,0.0828549643 24.6086539,-0.0384068571 24.1958046,0.0363676071 Z" id="形状"></path>
            </g>
        </g>
    </g>
</svg>