<?xml version="1.0" encoding="UTF-8"?>
<svg width="22px" height="22px" viewBox="0 0 22 22" version="1.1" xmlns="http://www.w3.org/2000/svg" xmlns:xlink="http://www.w3.org/1999/xlink">
    <title>路径</title>
    <g id="2.0" stroke="none" stroke-width="1" fill="none" fill-rule="evenodd">
        <g id="切图规范" transform="translate(-4648.000000, -1125.000000)" fill="#C7CAD0" fill-rule="nonzero">
            <path d="M4660.78354,1134.26762 L4660.78354,1123.75796 C4660.78354,1122.78707 4659.99648,1122 4659.02558,1122 C4658.05469,1122 4657.26762,1122.78707 4657.26762,1123.75796 L4657.26762,1134.26762 L4646.75796,1134.26762 C4645.78707,1134.26762 4645,1135.05469 4645,1136.02558 C4645,1136.99648 4645.78707,1137.78354 4646.75796,1137.78354 L4657.26762,1137.78354 L4657.26762,1148.29618 C4657.26762,1149.26707 4658.05469,1150.05414 4659.02558,1150.05414 C4659.99648,1150.05414 4660.78354,1149.26707 4660.78354,1148.29618 L4660.78354,1137.78354 L4671.29618,1137.78354 C4672.26707,1137.78354 4673.05414,1136.99648 4673.05414,1136.02558 C4673.05414,1135.05469 4672.26707,1134.26762 4671.29618,1134.26762 L4660.78354,1134.26762 Z" id="路径" transform="translate(4659.027070, 1136.027070) rotate(-315.000000) translate(-4659.027070, -1136.027070) "></path>
        </g>
    </g>
</svg>