<?xml version="1.0" encoding="UTF-8"?>
<svg width="52px" height="52px" viewBox="0 0 52 52" version="1.1" xmlns="http://www.w3.org/2000/svg" xmlns:xlink="http://www.w3.org/1999/xlink">
    <title>收藏备份</title>
    <g id="2.0" stroke="none" stroke-width="1" fill="none" fill-rule="evenodd">
        <g id="切图" transform="translate(-4676.000000, -5054.000000)" fill="#6D7278" fill-rule="nonzero">
            <g id="收藏备份" transform="translate(4676.000000, 5056.000000)">
                <path d="M50.6240689,22.4935215 C51.8741311,21.3187446 52.3123712,19.5980421 51.7735513,18.0086381 C51.2347314,16.4123236 49.8266154,15.2720991 48.1023918,15.0371437 L35.9394309,13.3371725 C35.75264,13.3095306 35.5945861,13.1989634 35.5083749,13.040023 L30.0770705,2.43938955 C29.3083541,0.932911006 27.7493685,0 26.0035921,0 C24.2649999,0 22.6988301,0.932911006 21.9301138,2.43938955 L16.491625,13.040023 C16.4125981,13.1989634 16.24736,13.3095306 16.0605691,13.3371725 L3.89760814,15.0371437 C2.17338452,15.272099 0.765268536,16.4123236 0.22644868,18.0086381 C-0.312371176,19.6049525 0.125868971,21.3256551 1.37593108,22.4935215 L10.1694716,30.7515116 C10.3059727,30.8828102 10.3634468,31.0555715 10.3347097,31.2352433 L8.25845711,42.8862655 C7.96390221,44.5378635 8.66077595,46.1756406 10.0688919,47.1638353 C10.8663454,47.7166714 11.8002998,48 12.7342543,48 C13.4598651,48 14.1854759,47.8341491 14.8536125,47.4886265 L25.7234058,41.9879067 C25.8886439,41.9049812 26.0898033,41.9049812 26.2550414,41.9879067 L37.1320189,47.4886265 C37.7929713,47.8272387 38.5042135,47.9930895 39.2513771,47.9930895 C40.2140686,47.9930895 41.1408388,47.7028506 41.9239237,47.1500144 C43.3320397,46.1687302 44.0289135,44.5309531 43.7343586,42.8724445 L41.6509216,31.2214224 C41.6221846,31.0486611 41.6796587,30.8620789 41.8161598,30.7376908 L50.6240689,22.4935215 L50.6240689,22.4935215 Z M12.1810659,43.5289375 L14.2573186,31.8779154 C14.5087679,30.4612727 14.0202378,29.0100777 12.9497823,28.0080622 L4.14905744,19.7569824 C3.94071374,19.5634898 3.95508231,19.3423553 4.00537214,19.1903253 C4.05566202,19.0382954 4.17779453,18.8586236 4.46516508,18.8171609 L16.628126,17.1171897 C18.1080847,16.9098762 19.3868839,16.0115174 20.0478363,14.7261733 L25.486325,4.13245033 C25.622826,3.8767636 25.838354,3.82147999 26.0035921,3.82147999 C26.1688302,3.82147999 26.3843582,3.8767636 26.513675,4.12553985 L31.9521637,14.7192629 C32.6131161,16.0115174 33.8919153,16.9098762 35.3718739,17.1171897 L47.5276506,18.8171609 C47.8222055,18.8586236 47.9371537,19.0452058 47.9874435,19.1903253 C48.0377334,19.3423553 48.0521019,19.5565793 47.8437582,19.7569824 L39.0502177,28.0080622 C37.9797622,29.0169881 37.4912322,30.4612727 37.7426814,31.8779154 L39.818934,43.5289375 C39.8692239,43.8053556 39.7255386,43.9712064 39.5962218,44.0679527 C39.4597208,44.1577886 39.2441928,44.240714 38.9927436,44.1094155 L28.1157661,38.6086956 C27.4619979,38.2769939 26.7292029,38.1042326 26.0035921,38.1042326 C25.2779814,38.1042326 24.538002,38.2769939 23.8914182,38.6086956 L13.0144407,44.1094155 C12.7558072,44.240714 12.5402792,44.1577886 12.4109624,44.0679527 C12.2744614,43.9781169 12.1307761,43.8053555 12.1810659,43.5289375 Z" id="形状"></path>
            </g>
        </g>
    </g>
</svg>