<?xml version="1.0" encoding="UTF-8"?>
<svg width="28px" height="28px" viewBox="0 0 28 28" version="1.1" xmlns="http://www.w3.org/2000/svg" xmlns:xlink="http://www.w3.org/1999/xlink">
    <title>定位备份</title>
    <g id="2.0" stroke="none" stroke-width="1" fill="none" fill-rule="evenodd">
        <g id="切图" transform="translate(-4941.000000, -5220.000000)" fill="#C7CAD0" fill-rule="nonzero">
            <g id="定位备份" transform="translate(4943.000000, 5220.000000)">
                <path d="M12.0978807,16.4452227 C9.69125359,16.4452227 7.74032417,14.4942933 7.74032417,12.0876661 C7.74032417,9.68103897 9.69125359,7.73010955 12.0978807,7.73010955 C14.5045079,7.73010955 16.4554373,9.68103897 16.4554373,12.0876661 C16.4554373,14.4942933 14.5045079,16.4452227 12.0978807,16.4452227 Z M12.0978807,14.4340427 C13.3937231,14.4340427 14.4442574,13.3835399 14.4442574,12.0876661 C14.4442574,10.7918238 13.3937545,9.74128951 12.0978807,9.74128951 C10.8020384,9.74128951 9.75150413,10.7917924 9.75150413,12.0876661 C9.75150413,13.3835084 10.802007,14.4340427 12.0978807,14.4340427 Z M0.0308010057,12.0876661 C0.0308010057,5.42320851 5.43342313,0.0205863865 12.0978807,0.0205863865 C18.7623384,0.0205863865 24.1649605,5.42320851 24.1649605,12.0876661 C24.1649605,15.4198949 22.814305,18.4366649 20.6306079,20.6203933 L14.2310704,27.0199309 C13.0529319,28.1980379 11.1427981,28.1980379 9.96469109,27.0199309 L3.56515356,20.6203933 C1.38142511,18.4366649 0.0308010057,15.4198949 0.0308010057,12.0876661 Z M11.3868175,25.5978044 C11.7795304,25.9905172 12.4162311,25.9905172 12.808944,25.5978044 L19.2084815,19.1982669 C21.0834456,17.3232714 22.1537805,14.7927487 22.1537805,12.0876661 C22.1537805,6.5339305 17.6516164,2.03176634 12.0978807,2.03176634 C6.54414511,2.03176634 2.04198096,6.5339305 2.04198096,12.0876661 C2.04198096,14.7927487 3.11231591,17.3232714 4.98727999,19.1982669 L11.3868175,25.5978044 Z" id="形状"></path>
            </g>
        </g>
    </g>
</svg>