<?xml version="1.0" encoding="UTF-8"?>
<svg width="39px" height="39px" viewBox="0 0 39 39" version="1.1" xmlns="http://www.w3.org/2000/svg" xmlns:xlink="http://www.w3.org/1999/xlink">
    <title>Outlined/UI/search</title>
    <defs>
        <rect id="path-1" x="0" y="0" width="690" height="108" rx="8"></rect>
        <filter x="-3.6%" y="-18.5%" width="107.2%" height="146.3%" filterUnits="objectBoundingBox" id="filter-2">
            <feOffset dx="0" dy="5" in="SourceAlpha" result="shadowOffsetOuter1"></feOffset>
            <feGaussianBlur stdDeviation="7.5" in="shadowOffsetOuter1" result="shadowBlurOuter1"></feGaussianBlur>
            <feColorMatrix values="0 0 0 0 0.882352941   0 0 0 0 0.901960784   0 0 0 0 0.933333333  0 0 0 1 0" type="matrix" in="shadowBlurOuter1"></feColorMatrix>
        </filter>
        <filter id="filter-3">
            <feColorMatrix in="SourceGraphic" type="matrix" values="0 0 0 0 0.778911 0 0 0 0 0.793507 0 0 0 0 0.816859 0 0 0 1.000000 0"></feColorMatrix>
        </filter>
    </defs>
    <g id="页面-1" stroke="none" stroke-width="1" fill="none" fill-rule="evenodd">
        <g id="超级管理员-SIG组管理" transform="translate(-62.000000, -182.000000)">
            <rect id="矩形备份-5" fill="#F5F7FA" x="0" y="0" width="750" height="1630"></rect>
            <g id="编组-2备份" transform="translate(30.000000, 148.000000)">
                <g id="矩形">
                    <use fill="black" fill-opacity="1" filter="url(#filter-2)" xlink:href="#path-1"></use>
                    <use fill="#FFFFFF" fill-rule="evenodd" xlink:href="#path-1"></use>
                </g>
                <g id="Outlined/UI/search" transform="translate(30.000000, 32.000000)" filter="url(#filter-3)">
                    <g>
                        <path d="M40.8512501,38.8987501 L27.10125,25.14875 C31.7347211,19.4750918 31.106671,11.1650663 25.6731016,6.25224883 C20.2395323,1.33943137 11.9084417,1.548958 6.72869985,6.72869985 C1.548958,11.9084417 1.33943137,20.2395323 6.25224883,25.6731016 C11.1650663,31.106671 19.4750918,31.7347211 25.14875,27.10125 L38.8987501,40.8512501 L40.8512501,38.8987501 Z M5.49999995,16.4999999 C5.49999995,10.4248677 10.4248677,5.49999995 16.4999999,5.49999995 C22.5751322,5.49999995 27.4999999,10.4248677 27.4999999,16.4999999 C27.4999999,22.5751322 22.5751322,27.4999999 16.4999999,27.4999999 C13.5826186,27.4999999 10.7847255,26.3410748 8.72182537,24.2781746 C6.6589252,22.2152744 5.49999995,19.4173814 5.49999995,16.4999999 L5.49999995,16.4999999 Z" id="Style" fill="#252C32"></path>
                    </g>
                </g>
            </g>
        </g>
    </g>
</svg>