<?xml version="1.0" encoding="UTF-8"?>
<svg width="520px" height="186px" viewBox="0 0 520 186" version="1.1" xmlns="http://www.w3.org/2000/svg" xmlns:xlink="http://www.w3.org/1999/xlink">
    <title>编组</title>
    <g id="页面-1" stroke="none" stroke-width="1" fill="none" fill-rule="evenodd">
        <g id="左滑可针对单个会议进行操作" transform="translate(-40.000000, -86.000000)">
            <g id="编组" transform="translate(40.000000, 86.000000)">
                <g id="编组备份-2">
                    <rect id="矩形备份-3" fill="#3265E8" x="0" y="0" width="520" height="90" rx="8"></rect>
                    <text id="向左滑动可收藏会议和获取地址" font-family="PingFangSC-Regular, PingFang SC" font-size="34" font-weight="normal" fill="#FFFFFF">
                        <tspan x="22" y="57">向左滑动可收藏会议和获取地址</tspan>
                    </text>
                </g>
                <path d="M519.946691,164.700484 C519.619684,159.314388 516.432027,150.908871 516.432027,150.908871 C515.696426,148.134158 513.162453,146.420143 510.628809,147.073132 C510.138299,147.23638 509.729705,147.399627 509.321029,147.644334 C508.176834,146.338683 506.378544,145.685612 504.743757,146.093894 C503.926487,146.338683 503.190886,146.746638 502.618707,147.481087 C501.47443,146.665178 500.084816,146.338683 498.777036,146.665178 C498.286772,146.828425 497.796262,146.991345 497.387668,147.31784 L496.079888,141.850283 C495.344205,139.07557 492.565224,137.443343 489.949664,138.177792 C487.334103,138.912323 485.781232,141.687036 486.516587,144.461667 L491.012353,161.191322 C490.194755,160.946615 489.213981,160.946615 488.396793,161.191322 C487.415691,161.43603 486.516587,162.007313 485.86282,162.741762 C484.963716,163.802788 484.473206,165.108521 484.63671,166.495713 C484.718625,167.883152 485.37231,169.107097 486.434999,170.004875 L494.772108,178.900216 L495.099114,179.22671 C495.180702,179.308171 495.26229,179.389958 495.344205,179.389958 C495.589378,179.634665 495.671294,179.634665 495.752882,179.797912 C496.815489,181.103645 499.104043,182.572625 503.59948,186 L503.59948,182.735872 C500.084816,180.04262 498.450275,178.981676 497.060662,177.267989 C496.978992,177.186447 496.897077,177.186447 496.815489,177.023199 C496.815489,177.023199 496.57007,176.859952 496.57007,176.778492 L488.151374,167.883152 C487.66111,167.475197 487.415691,166.903995 487.334103,166.250924 C487.252188,165.598262 487.497607,165.026733 487.906283,164.537237 C488.233289,164.210742 488.641884,163.966035 489.050478,163.802788 C489.78616,163.558081 490.685264,163.802788 491.257444,164.292203 L494.608605,167.230163 L495.752882,168.209728 L489.132066,143.64543 C488.805387,142.339698 489.459154,141.115752 490.603349,140.789258 C491.747953,140.462763 492.973818,141.278999 493.300825,142.502945 L497.469256,158.171902 L497.469256,158.008655 L497.469256,158.090115 L500.166732,157.355666 L498.36836,150.582294 C498.531863,149.929305 499.022455,149.439891 499.512637,149.276562 C500.248319,149.113314 501.147423,149.603138 501.637933,150.582294 L501.883106,151.071791 L503.59948,157.6007 L506.296874,156.866169 L504.335081,149.684598 C504.580172,149.194774 504.90726,148.868607 505.315855,148.78682 C506.214959,148.542112 507.195732,149.276562 507.604654,150.419047 L508.01333,151.561533 L509.729705,157.845408 L512.427098,157.110958 L510.546893,150.092553 C510.710396,149.929305 510.955815,149.766058 511.200988,149.684598 C512.100092,149.439891 513.244369,150.2558 513.571375,151.561533 C513.571375,151.561533 517.331212,159.314388 517.249297,165.353228 C517.167627,171.718563 515.941517,173.024296 516.59553,180.695691 L519.538097,182.89912 C518.965999,175.472759 520.273697,171.065901 519.946691,164.700484 Z M484.751556,130.180134 C484.751556,130.180134 503.223112,128.529931 510,124.68019 C503.988137,123.690111 484.751556,121.930107 484.751556,121.930107 L487.37492,115 C487.37492,115 474.368405,123.250028 472.728706,124.569948 C471.089117,125.889759 472.728706,127.319921 472.728706,127.319921 L487.37492,137 L484.751556,130.180134 Z" id="Fill-1" fill="#3265E8"></path>
            </g>
        </g>
    </g>
</svg>