<?xml version="1.0" encoding="UTF-8"?>
<svg width="44px" height="37px" viewBox="0 0 44 37" version="1.1" xmlns="http://www.w3.org/2000/svg" xmlns:xlink="http://www.w3.org/1999/xlink">
    <title>Fill 1</title>
    <defs>
        <rect id="path-1" x="0" y="0" width="500" height="90" rx="8"></rect>
        <filter x="-6.5%" y="-30.6%" width="113.0%" height="172.2%" filterUnits="objectBoundingBox" id="filter-2">
            <feOffset dx="0" dy="5" in="SourceAlpha" result="shadowOffsetOuter1"></feOffset>
            <feGaussianBlur stdDeviation="10" in="shadowOffsetOuter1" result="shadowBlurOuter1"></feGaussianBlur>
            <feColorMatrix values="0 0 0 0 0.494270851   0 0 0 0 0.572356651   0 0 0 0 0.697293931  0 0 0 0.70427229 0" type="matrix" in="shadowBlurOuter1"></feColorMatrix>
        </filter>
        <polygon id="path-3" points="0.0032195122 0.0495268293 43.9570195 0.0495268293 43.9570195 36.1122488 0.0032195122 36.1122488"></polygon>
    </defs>
    <g id="页面-1" stroke="none" stroke-width="1" fill="none" fill-rule="evenodd">
        <g id="登录" transform="translate(-235.000000, -1183.000000)">
            <rect id="矩形备份-5" fill="#F5F7FA" x="0" y="0" width="750" height="1630"></rect>
            <g id="表单/列表/图文" transform="translate(0.000000, 128.000000)" fill="#FFFFFF">
                <rect id="Background" x="0" y="0" width="750" height="1502"></rect>
            </g>
            <g id="编组备份" transform="translate(125.000000, 1156.000000)">
                <g id="矩形备份-3">
                    <use fill="black" fill-opacity="1" filter="url(#filter-2)" xlink:href="#path-1"></use>
                    <use fill="#002FA7" fill-rule="evenodd" xlink:href="#path-1"></use>
                </g>
                <g id="编组-2" transform="translate(110.000000, 20.000000)">
                    <g id="weixin" transform="translate(0.000000, 7.000000)">
                        <mask id="mask-4" fill="white">
                            <use xlink:href="#path-3"></use>
                        </mask>
                        <g id="Clip-2"></g>
                        <path d="M21.4127073,10.9137171 C22.543078,10.9137171 23.2986976,10.1568098 23.2986976,9.02917561 C23.2986976,7.88893171 22.5445268,7.15134146 21.4127073,7.15134146 C20.2806195,7.15134146 19.1447756,7.88893171 19.1447756,9.02917561 C19.1460098,10.1568098 20.2820683,10.9137171 21.4127073,10.9137171 Z M10.8641902,7.15134146 C9.73376585,7.15134146 8.59083902,7.88893171 8.59083902,9.02917561 C8.59083902,10.1568098 9.73376585,10.9137171 10.8641902,10.9137171 C11.9905902,10.9137171 12.744761,10.1568098 12.744761,9.02917561 C12.7434732,7.88893171 11.9905902,7.15134146 10.8641902,7.15134146 Z M43.9570195,22.9787317 C43.9570195,17.0169463 38.4266488,11.9372 31.6382,11.4083951 C31.6476439,11.3341854 31.6518293,11.257239 31.6352488,11.1803463 C30.2740927,4.83393659 23.4498537,0.0495268293 15.7598878,0.0495268293 C7.0701561,0.0495268293 0,6.1087561 0,13.5568293 C0,17.5527268 2.03988293,21.1530537 5.90539024,23.9923415 L4.55780976,28.0433463 C4.47125854,28.3070244 4.54965366,28.5969415 4.75967317,28.7797024 C4.88754146,28.8895415 5.0480878,28.9471707 5.21035122,28.9471707 C5.31471707,28.9471707 5.42058537,28.9224341 5.51802927,28.8744634 L10.5772244,26.342639 L11.2007902,26.4690049 C12.7585512,26.789078 14.1033951,27.0666 15.7598878,27.0666 C16.2476439,27.0666 16.7421073,27.0446 17.2271268,27.0034976 C17.4235171,26.9869707 17.5897512,26.8880244 17.7022732,26.7452927 C19.5264488,31.3098098 24.5542537,34.6051951 30.4704829,34.6051951 C31.9857463,34.6051951 33.5200049,34.2398878 34.8965073,33.895078 L38.7961951,36.0269317 C38.8992732,36.0833268 39.0132976,36.1122488 39.1258732,36.1122488 C39.2797122,36.1122488 39.4335512,36.0600927 39.5572341,35.9596976 C39.7741756,35.7838049 39.8634634,35.4941561 39.7825463,35.2289756 L38.7865366,31.9170634 C42.125922,29.2783512 43.9570195,26.1215122 43.9570195,22.9787317 Z M17.1103659,25.6339707 C16.6639268,25.6723366 16.2105122,25.6916 15.7613366,25.6916 C14.2448927,25.6916 12.9618634,25.4292098 11.4783122,25.1229805 L10.6155902,24.9485902 C10.4671707,24.9169317 10.3105951,24.9374829 10.1747854,25.0074537 L6.38472195,26.9046049 L7.36967805,23.9456049 C7.4658878,23.6559561 7.36001951,23.3398537 7.11141951,23.1654634 C3.30354146,20.5114585 1.37376585,17.2778878 1.37376585,13.5568293 C1.37376585,6.8671122 7.82700976,1.42329268 15.7598878,1.42329268 C22.7725756,1.42329268 28.9814585,5.68973659 30.2629854,11.3643415 C22.9098878,11.4605512 16.9604976,16.6295854 16.9604976,22.9787317 C16.9604976,23.9018195 17.1007073,24.7959854 17.3369659,25.6587073 C17.2654927,25.6408927 17.1899951,25.6270488 17.1103659,25.6339707 Z M37.5804537,31.1106829 C37.3511707,31.283839 37.2536732,31.5819122 37.3360927,31.8566976 L37.9858439,34.0172585 L35.3194976,32.5584439 C35.2178146,32.5022634 35.1037902,32.4733415 34.9897659,32.4733415 C34.9335854,32.4733415 34.8771902,32.4802634 34.8222976,32.4953415 C33.3921902,32.856678 31.9127707,33.228961 30.4719854,33.228961 C23.7793171,33.228961 18.3354976,28.6298341 18.3354976,22.9772293 C18.3354976,17.324678 23.7793171,12.727 30.4719854,12.727 C37.0365707,12.727 42.583522,17.4208341 42.583522,22.9772293 C42.583522,25.7960195 40.8073171,28.6847268 37.5804537,31.1106829 Z M26.313878,18.0787951 C25.5597073,18.0787951 24.8055366,18.8383854 24.8055366,19.591322 C24.8055366,20.3494634 25.5597073,21.098161 26.313878,21.098161 C27.4469854,21.098161 28.1956829,20.3494634 28.1956829,19.591322 C28.1956829,18.8371512 27.4469854,18.0787951 26.313878,18.0787951 Z M34.5996683,18.0787951 C33.8566585,18.0787951 33.1024878,18.8383854 33.1024878,19.591322 C33.1024878,20.3494634 33.8566585,21.098161 34.5996683,21.098161 C35.7288049,21.098161 36.4911317,20.3494634 36.4911317,19.591322 C36.4911317,18.8371512 35.7303073,18.0787951 34.5996683,18.0787951 Z" id="Fill-1" fill="#FFFFFF" mask="url(#mask-4)"></path>
                    </g>
                </g>
            </g>
        </g>
    </g>
</svg>