<?xml version="1.0" encoding="UTF-8"?>
<svg width="54px" height="54px" viewBox="0 0 54 54" version="1.1" xmlns="http://www.w3.org/2000/svg" xmlns:xlink="http://www.w3.org/1999/xlink">
    <title>功能区-我报名的活动</title>
    <defs>
        <path d="M35.1,0 C40.5945,0 43.3044,0 46.2,0.9 C49.40865,2.08215 51.91785,4.59135 53.1,7.8 C54,10.69515 54,13.40595 54,18.9 L54,35.1 C54,40.5945 54,43.3044 53.1,46.2 C51.91785,49.40865 49.40865,51.91785 46.2,53.1 C43.3044,54 40.5945,54 35.1,54 L18.9,54 C13.4055,54 10.69515,54 7.8,53.1 C4.59135,51.91785 2.08215,49.40865 0.9,46.2 C0,43.3044 0,40.5945 0,35.1 L0,18.9 C0,13.40595 0,10.69515 0.9,7.8 C2.08215,4.59135 4.59135,2.08215 7.8,0.9 C10.69515,0 13.4055,0 18.9,0 L35.1,0 Z" id="path-1"></path>
    </defs>
    <g id="mindspore小程序1.0" stroke="none" stroke-width="1" fill="none" fill-rule="evenodd">
        <g id="切图规范" transform="translate(-268.000000, -1168.000000)">
            <g id="编组" transform="translate(268.000000, 1168.000000)">
                <mask id="mask-2" fill="white">
                    <use xlink:href="#path-1"></use>
                </mask>
                <g id="Icon-Shape-"></g>
                <g mask="url(#mask-2)">
                    <g transform="translate(6.000000, 8.000000)">
                        <path d="M40.3070889,20.8558 C41.0584222,21.8233556 41.5064222,23.0398 41.5064222,24.3604667 L41.5064222,27.3409111 L30.0684222,27.3409111 L30.0684222,24.3604667 C30.0684222,23.0335778 30.5210889,21.8124667 31.2786444,20.8418" id="Stroke-1" stroke="#6D7278" stroke-width="1.5" fill="none"></path>
                        <path d="M40.0138667,16.0310889 C40.0138667,18.3659778 38.1223111,20.2575333 35.7874222,20.2575333 C33.4525333,20.2575333 31.5609778,18.3659778 31.5609778,16.0310889 C31.5609778,13.6962 33.4525333,11.8046444 35.7874222,11.8046444 C38.1223111,11.8046444 40.0138667,13.6962 40.0138667,16.0310889" id="Fill-3" stroke="none" fill="#B8ECFF" fill-rule="evenodd"></path>
                        <path d="M40.0138667,16.0310889 C40.0138667,18.3659778 38.1223111,20.2575333 35.7874222,20.2575333 C33.4525333,20.2575333 31.5609778,18.3659778 31.5609778,16.0310889 C31.5609778,13.6962 33.4525333,11.8046444 35.7874222,11.8046444 C38.1223111,11.8046444 40.0138667,13.6962 40.0138667,16.0310889 Z" id="Stroke-5" stroke="#6D7278" stroke-width="1.5" fill="none"></path>
                        <path d="M11.0158222,20.8558 C11.7671556,21.8233556 12.2151556,23.0398 12.2151556,24.3604667 L12.2151556,27.3409111 L0.777155556,27.3409111 L0.777155556,24.3604667 C0.777155556,23.0335778 1.22982222,21.8124667 1.98737778,20.8418" id="Stroke-7" stroke="#6D7278" stroke-width="1.5" fill="none"></path>
                        <path d="M10.7226,16.0310889 C10.7226,18.3659778 8.83104444,20.2575333 6.49615556,20.2575333 C4.16126667,20.2575333 2.26971111,18.3659778 2.26971111,16.0310889 C2.26971111,13.6962 4.16126667,11.8046444 6.49615556,11.8046444 C8.83104444,11.8046444 10.7226,13.6962 10.7226,16.0310889" id="Fill-9" stroke="none" fill="#B8ECFF" fill-rule="evenodd"></path>
                        <path d="M10.7226,16.0310889 C10.7226,18.3659778 8.83104444,20.2575333 6.49615556,20.2575333 C4.16126667,20.2575333 2.26971111,18.3659778 2.26971111,16.0310889 C2.26971111,13.6962 4.16126667,11.8046444 6.49615556,11.8046444 C8.83104444,11.8046444 10.7226,13.6962 10.7226,16.0310889 Z" id="Stroke-11" stroke="#6D7278" stroke-width="1.5" fill="none"></path>
                        <line x1="21.0009333" y1="27.9802444" x2="21.0009333" y2="33.5584667" id="Stroke-13" stroke="#6D7278" stroke-width="1.5" fill="none"></line>
                        <path d="M30.1899111,37.9653556 L11.8141333,37.9653556 L11.8141333,35.1498 C11.8141333,30.0771333 15.9270222,25.9611333 21.0012444,25.9611333 C26.0754667,25.9611333 30.1899111,30.0771333 30.1899111,35.1498 L30.1899111,37.9653556 Z" id="Stroke-15" stroke="#6D7278" stroke-width="1.5" fill="none"></path>
                        <path d="M26.2675778,23.1101111 C26.2675778,26.0174444 23.9093556,28.3756667 21.0004667,28.3756667 C18.0931333,28.3756667 15.7349111,26.0174444 15.7349111,23.1101111 C15.7349111,20.2012222 18.0931333,17.843 21.0004667,17.843 C23.9093556,17.843 26.2675778,20.2012222 26.2675778,23.1101111" id="Fill-17" stroke="none" fill="#B8ECFF" fill-rule="evenodd"></path>
                        <path d="M26.2675778,23.1101111 C26.2675778,26.0174444 23.9093556,28.3756667 21.0004667,28.3756667 C18.0931333,28.3756667 15.7349111,26.0174444 15.7349111,23.1101111 C15.7349111,20.2012222 18.0931333,17.843 21.0004667,17.843 C23.9093556,17.843 26.2675778,20.2012222 26.2675778,23.1101111 Z" id="Stroke-19" stroke="#6D7278" stroke-width="1.5" fill="none"></path>
                        <line x1="26.6351556" y1="5.99293333" x2="15.3682667" y2="5.99293333" id="Stroke-21" stroke="#6D7278" stroke-width="1.5" fill="none"></line>
                        <polygon id="Stroke-23" stroke="#6D7278" stroke-width="1.5" fill="none" points="18.8240889 10.9816 23.1796444 10.9816 27.2536444 14.2218222 27.2552 10.9816 30.5529778 10.9816 30.5529778 0.777155556 11.4507556 0.777155556 11.4507556 10.9816 14.7485333 10.9816 14.7469778 14.2218222"></polygon>
                    </g>
                </g>
            </g>
        </g>
    </g>
</svg>