<?xml version="1.0" encoding="UTF-8"?>
<svg width="30px" height="30px" viewBox="0 0 30 30" version="1.1" xmlns="http://www.w3.org/2000/svg" xmlns:xlink="http://www.w3.org/1999/xlink">
    <title>Outlined/UI/link</title>
    <defs>
        <filter id="filter-1">
            <feColorMatrix in="SourceGraphic" type="matrix" values="0 0 0 0 0.000000 0 0 0 0 0.000000 0 0 0 0 0.000000 0 0 0 0.502841 0"></feColorMatrix>
        </filter>
    </defs>
    <g id="页面-1" stroke="none" stroke-width="1" fill="none" fill-rule="evenodd">
        <g id="icon修改" transform="translate(-82.000000, -292.000000)">
            <g id="Outlined/UI/link" transform="translate(81.000000, 291.000000)" filter="url(#filter-1)">
                <g>
                    <path d="M29.35,6.87999997 L25.11,2.62999996 C23.9398877,1.46682917 22.0501124,1.46682917 20.88,2.62999996 L14.64,8.80999998 C14.0751364,9.3729056 13.7576343,10.1375456 13.7576343,10.935 C13.7576343,11.7324544 14.0751364,12.4970944 14.64,13.06 L16.08,14.51 L14.54,16.05 L13.12,14.63 C11.9487298,13.4601865 10.0512702,13.4601865 8.87999998,14.63 L2.64999996,20.8 C2.082062,21.3632998 1.76260498,22.1300874 1.76260498,22.93 C1.76260498,23.7299126 2.082062,24.4967002 2.64999996,25.06 L6.87999997,29.3 C7.44370289,29.8591042 8.20605122,30.1719547 8.99999998,30.1700095 C9.78906319,30.1719768 10.5471356,29.8629994 11.11,29.31 L17.34,23.12 C17.9101126,22.561222 18.2340098,21.7982639 18.24,21 C18.2419575,20.2011539 17.925225,19.4345173 17.36,18.87 L16,17.46 L17.54,15.92 L18.93,17.3 C20.1001124,18.4631708 21.9898877,18.4631708 23.16,17.3 L29.39,11.12 C29.9438137,10.5551227 30.2466197,9.79089806 30.23,8.99999998 C30.2292998,8.20461857 29.91277,7.44206941 29.35,6.87999997 Z M15.94,20.29 C16.1308556,20.4770715 16.2388906,20.7327541 16.24,21 C16.236243,21.2637693 16.1284143,21.5153696 15.94,21.7 L9.70999998,27.89 C9.31996252,28.2777236 8.69003743,28.2777236 8.29999998,27.89 L4.05999996,23.64 C3.86914432,23.4529286 3.76110939,23.1972459 3.75999996,22.93 C3.76110939,22.6627541 3.86914432,22.4070715 4.05999996,22.22 L10.29,16 C10.6800374,15.6122764 11.3099625,15.6122764 11.7,16 L13.12,17.42 L10.29,20.25 L11.71,21.67 L14.54,18.84 L15.94,20.29 Z M27.94,9.70999998 L21.7,15.89 C21.3099626,16.2777236 20.6800375,16.2777236 20.29,15.89 L18.91,14.51 L21.71,11.71 L20.29,10.29 L17.49,13.09 L16.05,11.65 C15.8606873,11.4622334 15.7542017,11.2066375 15.7542017,10.94 C15.7542017,10.6733624 15.8606873,10.4177666 16.05,10.23 L22.28,4.04999996 C22.4711631,3.8603319 22.7307428,3.75577897 23,3.75987694 C23.265803,3.7584632 23.5212812,3.86281345 23.71,4.04999996 L27.95,8.28999998 C28.1393127,8.47776658 28.2457984,8.73336244 28.2457984,8.99999998 C28.2457984,9.26663752 28.1393127,9.52223338 27.95,9.70999998 L27.94,9.70999998 Z" id="Style" fill="#252C32"></path>
                </g>
            </g>
        </g>
    </g>
</svg>