<?xml version="1.0" encoding="UTF-8"?>
<svg width="54px" height="54px" viewBox="0 0 54 54" version="1.1" xmlns="http://www.w3.org/2000/svg" xmlns:xlink="http://www.w3.org/1999/xlink">
    <title>功能区-查看会议备份</title>
    <g id="mindspore小程序1.0" stroke="none" stroke-width="1" fill="none" fill-rule="evenodd">
        <g id="切图规范" transform="translate(-165.000000, -1168.000000)">
            <g id="编组" transform="translate(165.000000, 1168.000000)">
                <path d="M35.1,0 C40.5945,0 43.3044,0 46.2,0.9 C49.40865,2.08215 51.91785,4.59135 53.1,7.8 C54,10.69515 54,13.40595 54,18.9 L54,35.1 C54,40.5945 54,43.3044 53.1,46.2 C51.91785,49.40865 49.40865,51.91785 46.2,53.1 C43.3044,54 40.5945,54 35.1,54 L18.9,54 C13.4055,54 10.69515,54 7.8,53.1 C4.59135,51.91785 2.08215,49.40865 0.9,46.2 C0,43.3044 0,40.5945 0,35.1 L0,18.9 C0,13.40595 0,10.69515 0.9,7.8 C2.08215,4.59135 4.59135,2.08215 7.8,0.9 C10.69515,0 13.4055,0 18.9,0 L35.1,0 Z" id="Icon-Shape-"></path>
                <g transform="translate(7.000000, 7.000000)">
                    <line x1="20.2109419" y1="9.50554839" x2="20.2109419" y2="14.364" id="Stroke-1" stroke="#6D7278" stroke-width="1.5"></line>
                    <line x1="24.1272387" y1="21.9941806" x2="16.3464" y2="21.9941806" id="Stroke-2" stroke="#6D7278" stroke-width="1.5"></line>
                    <line x1="24.1272387" y1="25.7848839" x2="16.3464" y2="25.7848839" id="Stroke-3" stroke="#6D7278" stroke-width="1.5"></line>
                    <line x1="26.3990323" y1="33.2881161" x2="14.1079355" y2="33.2881161" id="Stroke-4" stroke="#6D7278" stroke-width="1.5"></line>
                    <g transform="translate(0.000000, 0.617129)">
                        <path d="M8.08229032,21.4816452 C8.47383871,19.2529355 8.76648387,17.5864839 8.76648387,17.5864839 L32.4151935,17.5864839 C32.4151935,17.5864839 32.6997097,19.206871 33.083129,21.3881613" id="Stroke-5" stroke="#6D7278" stroke-width="1.5"></path>
                        <path d="M11.4693871,27.6948 C11.4693871,30.2269935 9.41545161,32.280929 6.88325806,32.280929 C4.34970968,32.280929 2.29577419,30.2269935 2.29577419,27.6948 C2.29577419,25.1612516 4.34970968,23.1073161 6.88325806,23.1073161 C9.41545161,23.1073161 11.4693871,25.1612516 11.4693871,27.6948" id="Fill-7" fill="#B8ECFF"></path>
                        <path d="M11.4693871,27.6948 C11.4693871,30.2269935 9.41545161,32.280929 6.88325806,32.280929 C4.34970968,32.280929 2.29577419,30.2269935 2.29577419,27.6948 C2.29577419,25.1612516 4.34970968,23.1073161 6.88325806,23.1073161 C9.41545161,23.1073161 11.4693871,25.1612516 11.4693871,27.6948 Z" id="Stroke-9" stroke="#6D7278" stroke-width="1.5"></path>
                        <path d="M38.6917548,32.9289484 C39.5087226,33.9789484 39.9937548,35.2999161 39.9937548,36.7333355 L39.9937548,39.9673355 L27.5820774,39.9673355 L27.5820774,36.7333355 C27.5820774,35.2931419 28.072529,33.9681097 28.896271,32.9140452" id="Stroke-11" stroke="#6D7278" stroke-width="1.5"></path>
                        <path d="M28.2130258,17.5864839 L12.2083161,17.5864839 L12.2083161,15.132871 C12.2083161,10.7147419 15.7905097,7.13119355 20.2113484,7.13119355 C24.6294774,7.13119355 28.2130258,10.7147419 28.2130258,15.132871 L28.2130258,17.5864839 Z" id="Stroke-13" stroke="#6D7278" stroke-width="1.5"></path>
                        <path d="M38.3743161,27.6948 C38.3743161,30.2269935 36.3203806,32.280929 33.7881871,32.280929 C31.2546387,32.280929 29.2007032,30.2269935 29.2007032,27.6948 C29.2007032,25.1612516 31.2546387,23.1073161 33.7881871,23.1073161 C36.3203806,23.1073161 38.3743161,25.1612516 38.3743161,27.6948" id="Fill-15" fill="#B8ECFF"></path>
                        <path d="M38.3743161,27.6948 C38.3743161,30.2269935 36.3203806,32.280929 33.7881871,32.280929 C31.2546387,32.280929 29.2007032,30.2269935 29.2007032,27.6948 C29.2007032,25.1612516 31.2546387,23.1073161 33.7881871,23.1073161 C36.3203806,23.1073161 38.3743161,25.1612516 38.3743161,27.6948 Z" id="Stroke-17" stroke="#6D7278" stroke-width="1.5"></path>
                        <path d="M11.7868258,32.9289484 C12.6037935,33.9789484 13.0888258,35.2999161 13.0888258,36.7333355 L13.0888258,39.9673355 L0.677148387,39.9673355 L0.677148387,36.7333355 C0.677148387,35.2931419 1.1676,33.9681097 1.99134194,32.9140452" id="Stroke-19" stroke="#6D7278" stroke-width="1.5"></path>
                        <path d="M24.7968,4.64669032 C24.7968,7.18023871 22.7428645,9.23417419 20.210671,9.23417419 C17.6771226,9.23417419 15.6231871,7.18023871 15.6231871,4.64669032 C15.6231871,2.11449677 17.6771226,0.0605612903 20.210671,0.0605612903 C22.7428645,0.0605612903 24.7968,2.11449677 24.7968,4.64669032" id="Fill-21" fill="#B8ECFF"></path>
                        <path d="M24.7968,4.64669032 C24.7968,7.18023871 22.7428645,9.23417419 20.210671,9.23417419 C17.6771226,9.23417419 15.6231871,7.18023871 15.6231871,4.64669032 C15.6231871,2.11449677 17.6771226,0.0605612903 20.210671,0.0605612903 C22.7428645,0.0605612903 24.7968,2.11449677 24.7968,4.64669032 Z" id="Stroke-23" stroke="#6D7278" stroke-width="1.5"></path>
                    </g>
                </g>
            </g>
        </g>
    </g>
</svg>