<?xml version="1.0" encoding="UTF-8"?>
<svg width="54px" height="54px" viewBox="0 0 54 54" version="1.1" xmlns="http://www.w3.org/2000/svg" xmlns:xlink="http://www.w3.org/1999/xlink">
    <title>功能区-头条</title>
    <defs>
        <path d="M35.1,0 C40.5945,0 43.3044,0 46.2,0.9 C49.40865,2.08215 51.91785,4.59135 53.1,7.8 C54,10.69515 54,13.40595 54,18.9 L54,35.1 C54,40.5945 54,43.3044 53.1,46.2 C51.91785,49.40865 49.40865,51.91785 46.2,53.1 C43.3044,54 40.5945,54 35.1,54 L18.9,54 C13.4055,54 10.69515,54 7.8,53.1 C4.59135,51.91785 2.08215,49.40865 0.9,46.2 C0,43.3044 0,40.5945 0,35.1 L0,18.9 C0,13.40595 0,10.69515 0.9,7.8 C2.08215,4.59135 4.59135,2.08215 7.8,0.9 C10.69515,0 13.4055,0 18.9,0 L35.1,0 Z" id="path-1"></path>
        <polygon id="path-3" points="0 39.1479024 36.6643902 39.1479024 36.6643902 -0.000390243902 0 -0.000390243902"></polygon>
    </defs>
    <g id="mindspore小程序1.0" stroke="none" stroke-width="1" fill="none" fill-rule="evenodd">
        <g id="切图规范" transform="translate(-5613.000000, -1075.000000)">
            <g id="编组" transform="translate(5613.000000, 1075.000000)">
                <mask id="mask-2" fill="white">
                    <use xlink:href="#path-1"></use>
                </mask>
                <g id="Icon-Shape-"></g>
                <g mask="url(#mask-2)">
                    <g transform="translate(9.000000, 7.000000)">
                        <path d="M4.78721951,33.0727805 L4.78721951,6.07473171 C4.78721951,3.1235122 7.17941463,0.732292683 10.1306341,0.732292683 L30.5891707,0.732292683 C33.5403902,0.732292683 35.9325854,3.1235122 35.9325854,6.07473171 L35.9325854,33.0727805 C35.9325854,36.024 33.5403902,38.4161951 30.5891707,38.4161951 L10.1394146,38.4161951" id="Stroke-1" stroke="#333333" stroke-width="1.5" fill="none"></path>
                        <path d="M26.5336585,38.4162927 L6.07512195,38.4162927 C3.12390244,38.4162927 0.731707317,36.0240976 0.731707317,33.072878 L0.731707317,6.07482927" id="Stroke-3" stroke="#333333" stroke-width="1.5" fill="none"></path>
                        <line x1="9.83297561" y1="9.43043902" x2="30.8856585" y2="9.38653659" id="Stroke-5" stroke="#333333" stroke-width="1.5" fill="none"></line>
                        <line x1="9.83297561" y1="29.761561" x2="30.8856585" y2="29.7176585" id="Stroke-7" stroke="#333333" stroke-width="1.5" fill="none"></line>
                        <line x1="21.3878049" y1="16.1635122" x2="30.8853659" y2="16.1635122" id="Stroke-9" stroke="#333333" stroke-width="1.5" fill="none"></line>
                        <line x1="21.3878049" y1="22.9403902" x2="30.8853659" y2="22.9403902" id="Stroke-11" stroke="#333333" stroke-width="1.5" fill="none"></line>
                        <mask id="mask-4" fill="white">
                            <use xlink:href="#path-3"></use>
                        </mask>
                        <g id="Clip-14" stroke="none" fill="none"></g>
                        <polygon id="Stroke-13" stroke="#40ADFF" stroke-width="1.5" fill="none" mask="url(#mask-4)" points="10.5785366 24.1966829 18.6858537 24.1966829 18.6858537 14.9498537 10.5785366 14.9498537"></polygon>
                    </g>
                </g>
            </g>
        </g>
    </g>
</svg>