<?xml version="1.0" encoding="UTF-8"?>
<svg width="54px" height="54px" viewBox="0 0 54 54" version="1.1" xmlns="http://www.w3.org/2000/svg" xmlns:xlink="http://www.w3.org/1999/xlink">
    <title>功能区-使用帮助</title>
    <defs>
        <path d="M35.1,0 C40.5945,0 43.3044,0 46.2,0.9 C49.40865,2.08215 51.91785,4.59135 53.1,7.8 C54,10.69515 54,13.40595 54,18.9 L54,35.1 C54,40.5945 54,43.3044 53.1,46.2 C51.91785,49.40865 49.40865,51.91785 46.2,53.1 C43.3044,54 40.5945,54 35.1,54 L18.9,54 C13.4055,54 10.69515,54 7.8,53.1 C4.59135,51.91785 2.08215,49.40865 0.9,46.2 C0,43.3044 0,40.5945 0,35.1 L0,18.9 C0,13.40595 0,10.69515 0.9,7.8 C2.08215,4.59135 4.59135,2.08215 7.8,0.9 C10.69515,0 13.4055,0 18.9,0 L35.1,0 Z" id="path-1"></path>
    </defs>
    <g id="mindspore小程序1.0" stroke="none" stroke-width="1" fill="none" fill-rule="evenodd">
        <g id="切图规范" transform="translate(-5145.000000, -914.000000)">
            <g id="编组" transform="translate(5145.000000, 914.000000)">
                <mask id="mask-2" fill="white">
                    <use xlink:href="#path-1"></use>
                </mask>
                <g id="Icon-Shape-"></g>
                <g mask="url(#mask-2)">
                    <g transform="translate(8.000000, 7.000000)">
                        <g id="编组" stroke="none" stroke-width="1" fill="none" fill-rule="evenodd" transform="translate(0.000000, 8.357895)">
                            <path d="M4.57894737,23.4106316 C2.2,20.2843158 0.789473684,16.3685263 0.789473684,12.1369474 C0.789473684,7.90536842 2.2,3.98957895 4.57894737,0.863263158" id="Fill-1" fill="#FFFFFF"></path>
                            <path d="M4.57894737,23.4106316 C2.2,20.2843158 0.789473684,16.3685263 0.789473684,12.1369474 C0.789473684,7.90536842 2.2,3.98957895 4.57894737,0.863263158" id="Stroke-3" stroke="#333333" stroke-width="1.57894737"></path>
                        </g>
                        <g id="编组" stroke="none" stroke-width="1" fill="none" fill-rule="evenodd" transform="translate(33.684211, 8.357895)">
                            <path d="M0.621263158,0.863368421 C3.00021053,3.98968421 4.41073684,7.90547368 4.41073684,12.1370526 C4.41073684,16.3686316 3.00021053,20.2844211 0.621263158,23.4107368" id="Fill-4" fill="#FFFFFF"></path>
                            <path d="M0.621263158,0.863368421 C3.00021053,3.98968421 4.41073684,7.90547368 4.41073684,12.1370526 C4.41073684,16.3686316 3.00021053,20.2844211 0.621263158,23.4107368" id="Stroke-6" stroke="#333333" stroke-width="1.57894737"></path>
                        </g>
                        <g id="编组" stroke="none" stroke-width="1" fill="none" fill-rule="evenodd" transform="translate(7.368421, 34.673684)">
                            <path d="M0.800105263,0.684 C3.92642105,3.05242105 7.84115789,4.47347368 12.0737895,4.47347368 C16.3158947,4.47347368 20.2211579,3.05242105 23.3474737,0.684" id="Fill-7" fill="#FFFFFF"></path>
                            <path d="M0.800105263,0.684 C3.92642105,3.05242105 7.84115789,4.47347368 12.0737895,4.47347368 C16.3158947,4.47347368 20.2211579,3.05242105 23.3474737,0.684" id="Stroke-9" stroke="#333333" stroke-width="1.57894737"></path>
                        </g>
                        <g id="编组" stroke="none" stroke-width="1" fill="none" fill-rule="evenodd" transform="translate(7.368421, 0.989474)">
                            <path d="M0.800105263,4.64210526 C3.92642105,2.26315789 7.84115789,0.852631579 12.0737895,0.852631579 C16.3158947,0.852631579 20.2211579,2.26315789 23.3474737,4.64210526" id="Fill-10" fill="#FFFFFF"></path>
                            <path d="M0.800105263,4.64210526 C3.92642105,2.26315789 7.84115789,0.852631579 12.0737895,0.852631579 C16.3158947,0.852631579 20.2211579,2.26315789 23.3474737,4.64210526" id="Stroke-12" stroke="#333333" stroke-width="1.57894737"></path>
                        </g>
                        <path d="M31.4898947,20.4938947 C31.4898947,27.1465263 26.0962105,32.5402105 19.4435789,32.5402105 C12.7898947,32.5402105 7.39621053,27.1465263 7.39621053,20.4938947 C7.39621053,13.8402105 12.7898947,8.44757895 19.4435789,8.44757895 C26.0962105,8.44757895 31.4898947,13.8402105 31.4898947,20.4938947" id="Fill-13" stroke="none" fill="#FFFFFF" fill-rule="evenodd"></path>
                        <path d="M31.4898947,20.4938947 C31.4898947,27.1465263 26.0962105,32.5402105 19.4435789,32.5402105 C12.7898947,32.5402105 7.39621053,27.1465263 7.39621053,20.4938947 C7.39621053,13.8402105 12.7898947,8.44757895 19.4435789,8.44757895 C26.0962105,8.44757895 31.4898947,13.8402105 31.4898947,20.4938947 Z" id="Stroke-15" stroke="#333333" stroke-width="1.5" fill="none"></path>
                        <path d="M10.8813684,5.63157895 C10.8813684,7.12947368 9.66663158,8.34421053 8.16873684,8.34421053 C6.66978947,8.34421053 5.45610526,7.12947368 5.45610526,5.63157895 C5.45610526,4.13368421 6.66978947,2.91894737 8.16873684,2.91894737 C9.66663158,2.91894737 10.8813684,4.13368421 10.8813684,5.63157895" id="Fill-17" stroke="none" fill="#FFFFFF" fill-rule="evenodd"></path>
                        <path d="M10.8813684,5.63157895 C10.8813684,7.12947368 9.66663158,8.34421053 8.16873684,8.34421053 C6.66978947,8.34421053 5.45610526,7.12947368 5.45610526,5.63157895 C5.45610526,4.13368421 6.66978947,2.91894737 8.16873684,2.91894737 C9.66663158,2.91894737 10.8813684,4.13368421 10.8813684,5.63157895 Z" id="Stroke-19" stroke="#333333" stroke-width="1.5" fill="none"></path>
                        <path d="M7.29168421,31.7685263 C7.29168421,33.2664211 6.078,34.4811579 4.57905263,34.4811579 C3.08115789,34.4811579 1.86642105,33.2664211 1.86642105,31.7685263 C1.86642105,30.2706316 3.08115789,29.0558947 4.57905263,29.0558947 C6.078,29.0558947 7.29168421,30.2706316 7.29168421,31.7685263" id="Fill-21" stroke="none" fill="#FFFFFF" fill-rule="evenodd"></path>
                        <path d="M7.29168421,31.7685263 C7.29168421,33.2664211 6.078,34.4811579 4.57905263,34.4811579 C3.08115789,34.4811579 1.86642105,33.2664211 1.86642105,31.7685263 C1.86642105,30.2706316 3.08115789,29.0558947 4.57905263,29.0558947 C6.078,29.0558947 7.29168421,30.2706316 7.29168421,31.7685263 Z" id="Stroke-23" stroke="#333333" stroke-width="1.5" fill="none"></path>
                        <path d="M33.4286316,35.3576842 C33.4286316,36.8555789 32.2138947,38.0713684 30.716,38.0713684 C29.2170526,38.0713684 28.0033684,36.8555789 28.0033684,35.3576842 C28.0033684,33.8597895 29.2170526,32.6450526 30.716,32.6450526 C32.2138947,32.6450526 33.4286316,33.8597895 33.4286316,35.3576842" id="Fill-25" stroke="none" fill="#FFFFFF" fill-rule="evenodd"></path>
                        <path d="M33.4286316,35.3576842 C33.4286316,36.8555789 32.2138947,38.0713684 30.716,38.0713684 C29.2170526,38.0713684 28.0033684,36.8555789 28.0033684,35.3576842 C28.0033684,33.8597895 29.2170526,32.6450526 30.716,32.6450526 C32.2138947,32.6450526 33.4286316,33.8597895 33.4286316,35.3576842 Z" id="Stroke-27" stroke="#333333" stroke-width="1.5" fill="none"></path>
                        <path d="M37.0183158,9.22126316 C37.0183158,10.7191579 35.8035789,11.9338947 34.3056842,11.9338947 C32.8067368,11.9338947 31.5930526,10.7191579 31.5930526,9.22126316 C31.5930526,7.72336842 32.8067368,6.50863158 34.3056842,6.50863158 C35.8035789,6.50863158 37.0183158,7.72336842 37.0183158,9.22126316" id="Fill-29" stroke="none" fill="#FFFFFF" fill-rule="evenodd"></path>
                        <path d="M37.0183158,9.22126316 C37.0183158,10.7191579 35.8035789,11.9338947 34.3056842,11.9338947 C32.8067368,11.9338947 31.5930526,10.7191579 31.5930526,9.22126316 C31.5930526,7.72336842 32.8067368,6.50863158 34.3056842,6.50863158 C35.8035789,6.50863158 37.0183158,7.72336842 37.0183158,9.22126316 Z" id="Stroke-31" stroke="#333333" stroke-width="1.5" fill="none"></path>
                        <path d="M20.6315789,25.6706316 C20.1947368,25.6706316 19.8410526,26.0243158 19.8410526,26.4611579 C19.8410526,26.8990526 20.1947368,27.2527368 20.6315789,27.2527368 C21.0684211,27.2527368 21.4221053,26.8990526 21.4221053,26.4611579 C21.4221053,26.0243158 21.0684211,25.6706316 20.6315789,25.6706316" id="Fill-33" stroke="none" fill="#40ADFF" fill-rule="evenodd"></path>
                        <g id="编组" stroke="none" stroke-width="1" fill="none" fill-rule="evenodd" transform="translate(15.789474, 13.621053)">
                            <path d="M4.84210526,10.8068421 L4.84210526,7.79842105 C4.84210526,7.37526316 5.07052632,6.98052632 5.43684211,6.76789474 C6.53684211,6.13210526 7.22,4.94894737 7.22,3.67947368 C7.22,1.71315789 5.62,0.114210526 3.65368421,0.114210526 C1.68736842,0.114210526 0.0873684211,1.71315789 0.0873684211,3.67947368" id="Stroke-37" stroke="#40ADFF" stroke-width="1.5"></path>
                        </g>
                    </g>
                </g>
            </g>
        </g>
    </g>
</svg>