<?xml version="1.0" encoding="UTF-8"?>
<svg width="54px" height="54px" viewBox="0 0 54 54" version="1.1" xmlns="http://www.w3.org/2000/svg" xmlns:xlink="http://www.w3.org/1999/xlink">
    <title>功能区-B站直播</title>
    <defs>
        <path d="M35.1,0 C40.5945,0 43.3044,0 46.2,0.9 C49.40865,2.08215 51.91785,4.59135 53.1,7.8 C54,10.69515 54,13.40595 54,18.9 L54,35.1 C54,40.5945 54,43.3044 53.1,46.2 C51.91785,49.40865 49.40865,51.91785 46.2,53.1 C43.3044,54 40.5945,54 35.1,54 L18.9,54 C13.4055,54 10.69515,54 7.8,53.1 C4.59135,51.91785 2.08215,49.40865 0.9,46.2 C0,43.3044 0,40.5945 0,35.1 L0,18.9 C0,13.40595 0,10.69515 0.9,7.8 C2.08215,4.59135 4.59135,2.08215 7.8,0.9 C10.69515,0 13.4055,0 18.9,0 L35.1,0 Z" id="path-1"></path>
    </defs>
    <g id="mindspore小程序1.0" stroke="none" stroke-width="1" fill="none" fill-rule="evenodd">
        <g id="切图规范" transform="translate(-5379.000000, -1075.000000)">
            <g id="编组" transform="translate(5379.000000, 1075.000000)">
                <mask id="mask-2" fill="white">
                    <use xlink:href="#path-1"></use>
                </mask>
                <g id="Icon-Shape-"></g>
                <g mask="url(#mask-2)">
                    <g transform="translate(10.000000, 6.000000)">
                        <path d="M28.4503116,14.9436 L7.4122186,14.9436 C6.56831163,14.9436 5.88361395,14.2589023 5.88361395,13.4140186 L5.88361395,9.18471628 C5.88361395,8.3408093 6.56831163,7.65611163 7.4122186,7.65611163 L28.4503116,7.65611163 C29.2942186,7.65611163 29.9789163,8.3408093 29.9789163,9.18471628 L29.9789163,13.4140186 C29.9789163,14.2589023 29.2942186,14.9436 28.4503116,14.9436 Z" id="Stroke-1" stroke="#333333" stroke-width="1.5" fill="none"></path>
                        <path d="M17.9311674,21.8666651 L17.9311674,21.8666651 C13.5983302,21.8666651 10.0879116,18.3552698 10.0879116,14.0234093 L10.0879116,8.57610698 C10.0879116,4.24424651 13.5983302,0.732851163 17.9311674,0.732851163 C22.2630279,0.732851163 25.7744233,4.24424651 25.7744233,8.57610698 L25.7744233,14.0234093 C25.7744233,18.3552698 22.2630279,21.8666651 17.9311674,21.8666651" id="Fill-3" stroke="none" fill="#FFFFFF" fill-rule="evenodd"></path>
                        <path d="M17.9311674,21.8666651 L17.9311674,21.8666651 C13.5983302,21.8666651 10.0879116,18.3552698 10.0879116,14.0234093 L10.0879116,8.57610698 C10.0879116,4.24424651 13.5983302,0.732851163 17.9311674,0.732851163 C22.2630279,0.732851163 25.7744233,4.24424651 25.7744233,8.57610698 L25.7744233,14.0234093 C25.7744233,18.3552698 22.2630279,21.8666651 17.9311674,21.8666651 Z" id="Stroke-5" stroke="#333333" stroke-width="1.5" fill="none"></path>
                        <polygon id="Fill-7" stroke="none" fill="#FFFFFF" fill-rule="evenodd" points="30.9808605 41.6976977 4.88030233 41.6976977 0.893232558 21.6988605 34.968907 21.6988605"></polygon>
                        <polygon id="Stroke-9" stroke="#333333" stroke-width="1.5" fill="none" points="30.9808605 41.6976977 4.88030233 41.6976977 0.893232558 21.6988605 34.968907 21.6988605"></polygon>
                        <path d="M18.845986,17.1894279 L22.5380791,17.1894279 C24.3255209,17.1894279 25.7750093,15.7409163 25.7750093,13.9534744 L25.7750093,12.5332884" id="Stroke-11" stroke="#333333" stroke-width="1.5" fill="none"></path>
                        <polygon id="Stroke-13" stroke="#40ADFF" stroke-width="1.5" fill="none" points="21.9135488 31.697986 13.9491767 27.0994744 13.9491767 36.2964977"></polygon>
                    </g>
                </g>
            </g>
        </g>
    </g>
</svg>