<?xml version="1.0" encoding="UTF-8"?>
<svg width="54px" height="54px" viewBox="0 0 54 54" version="1.1" xmlns="http://www.w3.org/2000/svg" xmlns:xlink="http://www.w3.org/1999/xlink">
    <title>功能区-公众号</title>
    <defs>
        <path d="M35.1,0 C40.5945,0 43.3044,0 46.2,0.9 C49.40865,2.08215 51.91785,4.59135 53.1,7.8 C54,10.69515 54,13.40595 54,18.9 L54,35.1 C54,40.5945 54,43.3044 53.1,46.2 C51.91785,49.40865 49.40865,51.91785 46.2,53.1 C43.3044,54 40.5945,54 35.1,54 L18.9,54 C13.4055,54 10.69515,54 7.8,53.1 C4.59135,51.91785 2.08215,49.40865 0.9,46.2 C0,43.3044 0,40.5945 0,35.1 L0,18.9 C0,13.40595 0,10.69515 0.9,7.8 C2.08215,4.59135 4.59135,2.08215 7.8,0.9 C10.69515,0 13.4055,0 18.9,0 L35.1,0 Z" id="path-1"></path>
    </defs>
    <g id="mindspore小程序1.0" stroke="none" stroke-width="1" fill="none" fill-rule="evenodd">
        <g id="切图规范" transform="translate(-5150.000000, -1075.000000)">
            <g id="编组" transform="translate(5150.000000, 1075.000000)">
                <mask id="mask-2" fill="white">
                    <use xlink:href="#path-1"></use>
                </mask>
                <g id="Icon-Shape-"></g>
                <g mask="url(#mask-2)" stroke-width="1.5">
                    <g transform="translate(9.000000, 7.000000)">
                        <path d="M4.83266667,0.762952381 C5.05647619,0.728666667 5.28314286,0.708666667 5.50885714,0.715333333 C13.8726667,0.715333333 22.2364762,0.716285714 30.6012381,0.715333333 C32.0755238,0.709619048 33.5221905,1.50295238 34.3974286,2.76009524 C34.9726667,3.57533333 35.3117143,4.57914286 35.3479048,5.59819048 L35.3479048,33.6153333 C35.3374286,34.1686667 35.3821905,34.7277143 35.2869524,35.2762857 C35.0602857,36.7991429 34.1345714,38.174381 32.8621905,38.9105714 C32.3288571,39.2229524 31.7412381,39.4239048 31.138381,39.502 C30.7421905,39.5581905 30.3421905,39.5400952 29.9440952,39.5429524 L8.11457143,39.5429524 C7.19171429,39.5391429 6.26790476,39.549619 5.34409524,39.5381905 C3.84790476,39.4905714 2.40219048,38.642 1.56314286,37.3277143 C1.07266667,36.574381 0.780285714,35.6762857 0.727904762,34.7610476 C0.705047619,34.3648571 0.718380952,33.9677143 0.71552381,33.5705714 L0.71552381,5.99533333 C0.711714286,5.462 0.761238095,4.92390476 0.902190476,4.40961905 C1.23171429,3.16961905 2.02695238,2.07914286 3.0707619,1.42485714 C3.60885714,1.08295238 4.21266667,0.858190476 4.83266667,0.762952381" id="Stroke-1" stroke="#333333"></path>
                        <path d="M13.2961905,0.714095238 C13.2933333,4.76933333 13.2980952,8.82361905 13.2942857,12.8788571 C14.3733333,12.1150476 15.4485714,11.3455238 16.5266667,10.5779048 C16.7904762,10.3940952 17.0419048,10.1769524 17.3542857,10.0769524 C17.9419048,9.856 18.6361905,9.94361905 19.1466667,10.3121905 C20.3542857,11.1721905 21.5609524,12.0321905 22.7685714,12.8921905 C22.7704762,8.83314286 22.7695238,4.77409524 22.7685714,0.714095238 L13.2961905,0.714095238 Z" id="Stroke-3" stroke="#333333"></path>
                        <line x1="13.3380952" y1="24.2790476" x2="22.7257143" y2="24.2790476" id="Stroke-5" stroke="#40ADFF"></line>
                        <line x1="18.0320952" y1="19.5849524" x2="18.0320952" y2="28.9725714" id="Stroke-7" stroke="#40ADFF"></line>
                        <path d="M25.426,24.2790476 C25.426,28.3628571 22.1155238,31.6733333 18.0317143,31.6733333 C13.9479048,31.6733333 10.638381,28.3628571 10.638381,24.2790476 C10.638381,20.1952381 13.9479048,16.8847619 18.0317143,16.8847619 C22.1155238,16.8847619 25.426,20.1952381 25.426,24.2790476 Z" id="Stroke-9" stroke="#333333"></path>
                    </g>
                </g>
            </g>
        </g>
    </g>
</svg>