<?xml version="1.0" encoding="UTF-8"?>
<svg width="54px" height="54px" viewBox="0 0 54 54" version="1.1" xmlns="http://www.w3.org/2000/svg" xmlns:xlink="http://www.w3.org/1999/xlink">
    <title>功能区-隐私政策</title>
    <defs>
        <path d="M35.1,0 C40.5945,0 43.3044,0 46.2,0.9 C49.40865,2.08215 51.91785,4.59135 53.1,7.8 C54,10.69515 54,13.40595 54,18.9 L54,35.1 C54,40.5945 54,43.3044 53.1,46.2 C51.91785,49.40865 49.40865,51.91785 46.2,53.1 C43.3044,54 40.5945,54 35.1,54 L18.9,54 C13.4055,54 10.69515,54 7.8,53.1 C4.59135,51.91785 2.08215,49.40865 0.9,46.2 C0,43.3044 0,40.5945 0,35.1 L0,18.9 C0,13.40595 0,10.69515 0.9,7.8 C2.08215,4.59135 4.59135,2.08215 7.8,0.9 C10.69515,0 13.4055,0 18.9,0 L35.1,0 Z" id="path-1"></path>
    </defs>
    <g id="mindspore小程序1.0" stroke="none" stroke-width="1" fill="none" fill-rule="evenodd">
        <g id="切图规范" transform="translate(-5613.000000, -914.000000)">
            <g id="编组" transform="translate(5613.000000, 914.000000)">
                <mask id="mask-2" fill="white">
                    <use xlink:href="#path-1"></use>
                </mask>
                <g id="Icon-Shape-"></g>
                <g mask="url(#mask-2)">
                    <g transform="translate(10.000000, 7.000000)">
                        <line x1="14.0491818" y1="21.8017273" x2="20.4991818" y2="21.8017273" id="Stroke-1" stroke="#40ADFF" stroke-width="1.5"></line>
                        <g id="编组" stroke="none" stroke-width="1" fill-rule="evenodd" transform="translate(0.000000, 0.056091)">
                            <path d="M13.1293636,10.6012727 C13.1293636,8.31581818 14.9884545,6.45672727 17.2739091,6.45672727 C19.5593636,6.45672727 21.4184545,8.31581818 21.4184545,10.6012727 L21.4184545,14.8385455 L13.1293636,14.8385455 L13.1293636,10.6012727 Z" id="Stroke-2" stroke="#333333" stroke-width="1.5"></path>
                            <path d="M10.3666364,14.8382727 L24.1811818,14.8382727 L24.1811818,21.7455455 C24.1811818,25.5546364 21.083,28.6537273 17.2739091,28.6537273 C13.4648182,28.6537273 10.3666364,25.5546364 10.3666364,21.7455455 L10.3666364,14.8382727 Z" id="Stroke-4" stroke="#333333" stroke-width="1.5"></path>
                            <path d="M16.9699091,38.2948182 L17.2735455,38.3820909 L17.5780909,38.2948182 C27.1871818,35.5493636 33.8662727,26.7311818 33.8662727,16.6720909 L33.8662727,2.83845455 L28.7935455,2.83845455 L26.5808182,0.625727273 L7.96718182,0.625727273 L5.75445455,2.83845455 L0.681727273,2.83845455 L0.681727273,16.6720909 C0.681727273,26.6657273 7.29718182,35.5311818 16.9699091,38.2948182 Z" id="Stroke-6" stroke="#333333" stroke-width="1.5"></path>
                        </g>
                    </g>
                </g>
            </g>
        </g>
    </g>
</svg>