<?xml version="1.0" encoding="UTF-8"?>
<svg width="44px" height="44px" viewBox="0 0 44 44" version="1.1" xmlns="http://www.w3.org/2000/svg" xmlns:xlink="http://www.w3.org/1999/xlink">
    <title>切片</title>
    <g id="2.0" stroke="none" stroke-width="1" fill="none" fill-rule="evenodd">
        <g id="1010新增功能" transform="translate(-1080.000000, -264.000000)">
            <g id="编组-2" transform="translate(404.000000, 106.000000)">
                <g id="设置" transform="translate(676.000000, 158.000000)">
                    <rect id="矩形" x="0" y="0" width="44" height="44"></rect>
                    <path d="M17.6799406,4.44437413 L17.4718881,4.50020485 C17.068034,4.64144187 16.7429254,4.9557107 16.5908784,5.36341925 L14.6982863,10.4331008 L9.18125567,9.59953174 C8.73783185,9.53256157 8.28834145,9.67422893 7.96346168,9.98334786 L7.60754094,10.3220019 C6.12974065,12.0002214 5.0428729,13.8846556 4.22678291,16.0200283 L4.06661533,16.3989925 L3.99360226,16.6211618 C3.8847426,17.0720974 3.99751211,17.5540028 4.30725558,17.9118734 L7.87782162,22.0385624 L4.31663225,26.0757029 C3.94778425,26.4935055 3.8506327,27.0855489 4.06661533,27.5993106 L4.2445757,28.0226281 C4.58468163,29.0016141 5.05511933,30.0087488 5.65811411,31.0606088 C6.19139181,31.9740323 6.78836439,32.8023828 7.45066857,33.5225816 L7.8744815,33.9302917 L8.04577224,34.07006 C8.34641513,34.2793712 8.71788689,34.368927 9.08574526,34.3150789 L14.6941376,33.4926034 L16.3960334,38.5870747 C16.5675088,39.1010183 17.0108763,39.4767454 17.5460061,39.5616069 L18.0798872,39.6462704 C20.353192,40.1286853 22.8334196,40.1769268 25.2638232,39.7827194 L26.4980202,39.553929 L26.7081637,39.4973666 C27.1158832,39.3540817 27.4428209,39.0344196 27.592221,38.6208859 L29.4738853,33.4075589 L34.9077249,34.2294443 C35.4085636,34.3050859 35.9126253,34.1142858 36.2378272,33.725967 L37.0775777,32.7232337 C38.2957531,31.1923396 39.1949417,29.5423187 39.7939386,27.7510854 L39.9333851,27.4299836 L40.0068001,27.2061514 C40.1159075,26.7518547 40.0001126,26.2665556 39.6852227,25.9084806 L36.2051528,21.9535179 L39.703977,17.8140753 C40.0563322,17.3970427 40.1449641,16.8176157 39.9333851,16.314329 L39.7554247,15.8910114 C39.4677321,15.0632705 39.0952411,14.2384412 38.6539813,13.4598953 L38.3103929,12.8853418 C37.8086086,12.0242708 37.211636,11.1959203 36.5493319,10.4757215 L36.1255189,10.0680114 L35.9597202,9.93208798 C35.6690068,9.7276928 35.310896,9.6355175 34.9530781,9.6780749 L29.4158035,10.3356107 L27.6859307,5.39071005 L27.5947047,5.18356652 C27.3821503,4.7878192 26.9950652,4.50838926 26.5429745,4.43669617 L26.0717602,4.36338448 C23.6555983,3.87075297 21.2331589,3.82148981 18.8782685,4.21715318 L17.6799406,4.44437413 Z M25.2276897,7.15992498 L26.7247514,11.4306078 L26.8251338,11.6744148 C27.3155256,12.7069575 28.507099,13.413654 29.657281,13.2312568 L34.5954568,12.6442575 L34.4795568,12.5104249 C34.8355676,12.9013727 35.2115345,13.4024493 35.5665172,13.962038 L36.1161857,14.8736308 C36.392297,15.3606037 36.63333,15.8643512 36.8447295,16.3944704 L36.9228781,16.604012 L33.8374448,20.2577824 L33.6644024,20.489153 C33.0299049,21.4464635 33.0874253,22.7638213 33.8351899,23.6531819 L36.9187294,27.1619744 L36.8385693,27.3878529 C36.3334185,28.6819709 35.6721967,29.8256408 34.8278727,30.8872282 L34.5353006,31.2337387 L29.7356784,30.5114175 L29.475516,30.4842632 C28.3452337,30.4262865 27.1971595,31.1345611 26.8137316,32.2290412 L25.1426413,36.8508236 L24.7359002,36.9257723 C22.9253097,37.2115208 21.0927201,37.2119672 19.3491753,36.9298457 L18.8739539,36.8404524 L17.3712458,32.3342231 L17.2681424,32.0845899 C16.7660385,31.0353544 15.5644418,30.4180877 14.4316996,30.5977193 L9.38794882,31.3353773 L9.52044368,31.4878782 C9.07543007,30.9991934 8.59923528,30.3384325 8.17182046,29.606409 L7.80893919,28.9434585 C7.58095694,28.5055693 7.38019846,28.0740541 7.20274318,27.6382232 L7.08334535,27.3258406 L10.230927,23.764382 L10.4083689,23.5279177 C11.0590757,22.5518396 11.0015553,21.2344818 10.2537907,20.3451212 L7.08749406,16.6869822 L7.19999796,16.4117031 C7.7753961,15.0598199 8.46479603,13.868455 9.28169665,12.834421 L9.489592,12.5820299 L14.3533023,13.3175585 L14.6201928,13.3450318 C15.6900469,13.3968847 16.7711742,12.7621051 17.2792274,11.7952929 L19.0233072,7.14333093 L18.6677639,7.21246993 C20.6544394,6.79267654 22.6849716,6.74603283 24.7258198,7.06995854 L25.2276897,7.15992498 Z" id="路径备份" fill="#FFFFFF" fill-rule="nonzero" transform="translate(22.000000, 22.000000) rotate(90.000000) translate(-22.000000, -22.000000) "></path>
                    <path d="M22,14.265625 C22.8284386,14.265625 23.6408109,14.3963573 24.4138454,14.6501097 C25.0902646,14.8721476 25.4586134,15.600491 25.2365754,16.2769101 C25.0145375,16.9533293 24.2861942,17.321678 23.609775,17.0996401 C23.0954608,16.9308139 22.5544443,16.84375 22,16.84375 C19.1522818,16.84375 16.84375,19.1522818 16.84375,22 C16.84375,24.8477182 19.1522818,27.15625 22,27.15625 C24.8477182,27.15625 27.15625,24.8477182 27.15625,22 C27.15625,20.9093151 26.8182695,19.8728459 26.1982066,19.0054806 C25.7841776,18.4263228 25.918041,17.6211859 26.4971988,17.207157 C27.0763566,16.7931281 27.8814936,16.9269915 28.2955225,17.5061493 C29.2257564,18.8073924 29.734375,20.3671494 29.734375,22 C29.734375,26.2715774 26.2715774,29.734375 22,29.734375 C17.7284226,29.734375 14.265625,26.2715774 14.265625,22 C14.265625,17.7284226 17.7284226,14.265625 22,14.265625 Z" id="路径" fill="#FFFFFF" fill-rule="nonzero"></path>
                </g>
            </g>
        </g>
    </g>
</svg>