<?xml version="1.0" encoding="UTF-8"?>
<svg width="40px" height="26px" viewBox="0 0 40 26" version="1.1" xmlns="http://www.w3.org/2000/svg" xmlns:xlink="http://www.w3.org/1999/xlink">
    <title>编组 10</title>
    <g id="2.0" stroke="none" stroke-width="1" fill="none" fill-rule="evenodd">
        <g id="切图" transform="translate(-2037.000000, -1320.000000)">
            <rect fill="#FFFFFF" x="0" y="0" width="11020" height="7800"></rect>
            <g id="编组-10" transform="translate(2037.000000, 1320.000000)">
                <path d="M0,0 L27,0 C34.1797017,-1.31888981e-15 40,5.82029825 40,13 C40,20.1797017 34.1797017,26 27,26 L0,26 L0,26 L0,0 Z" id="矩形" fill="#FFBE00"></path>
                <g id="收藏" transform="translate(9.000000, 3.000000)" fill="#FFFFFF" fill-rule="nonzero">
                    <path d="M20.1661813,9.03757559 C20.6641456,8.56556703 20.8387193,7.87421333 20.6240795,7.23561351 C20.4094397,6.59423717 19.8485144,6.13611124 19.1616671,6.0417095 L14.3165315,5.35868536 C14.2421231,5.34757927 14.1791621,5.30315494 14.1448197,5.23929496 L11.9812506,0.980111872 C11.6750312,0.374830315 11.0540067,0 10.3585738,0 C9.66600272,0 9.0421164,0.374830315 8.73589697,0.980111872 L6.56946601,5.23929496 C6.53798551,5.30315494 6.47216264,5.34757927 6.39775418,5.35868536 L1.55261863,6.0417095 C0.865771306,6.13611121 0.304845983,6.59423717 0.0902062049,7.23561351 C-0.124433573,7.87698986 0.0501401121,8.56834356 0.548104412,9.03757559 L4.05102579,12.3555181 C4.1054012,12.408272 4.1282961,12.477685 4.11684866,12.5498745 L3.28977,17.2310888 C3.17243357,17.8946773 3.45003438,18.5527128 4.0109597,18.9497552 C4.32862659,19.1718769 4.70066889,19.2857143 5.07271119,19.2857143 C5.36175944,19.2857143 5.6508077,19.2190778 5.91696104,19.0802517 L10.2469611,16.8701411 C10.312784,16.8368228 10.3929162,16.8368228 10.458739,16.8701411 L14.7916009,19.0802517 C15.0548924,19.2163013 15.3382169,19.2829378 15.6358508,19.2829378 C16.0193405,19.2829378 16.388521,19.1663239 16.7004641,18.9442022 C17.2613895,18.5499362 17.5389903,17.8919008 17.4216538,17.2255357 L16.5917133,12.5443215 C16.5802658,12.4749085 16.6031608,12.3999424 16.6575362,12.349965 L20.1661813,9.03757559 L20.1661813,9.03757559 Z M4.85234769,17.4893052 L5.67942635,12.808091 C5.7795916,12.2389042 5.58498485,11.6558348 5.15856712,11.2532393 L1.65278387,7.93807329 C1.56978981,7.8603307 1.57551356,7.77148203 1.59554659,7.71039857 C1.61557965,7.64931512 1.66423134,7.57712557 1.77870587,7.56046644 L6.62384142,6.8774423 C7.21338537,6.79414669 7.72279716,6.43319895 7.98608862,5.91676606 L10.1525196,1.66035951 C10.206895,1.55762823 10.2927509,1.53541607 10.3585738,1.53541607 C10.4243967,1.53541607 10.5102526,1.55762823 10.5617661,1.65758298 L12.7281971,5.91398956 C12.9914886,6.43319897 13.5009003,6.79414669 14.0904443,6.8774423 L18.932718,7.56046644 C19.0500544,7.57712557 19.0958442,7.65209163 19.1158772,7.71039857 C19.1359103,7.77148203 19.141634,7.85755418 19.05864,7.93807329 L15.5557186,11.2532393 C15.1293009,11.6586113 14.9346941,12.2389042 15.0348593,12.808091 L15.861938,17.4893052 C15.8819711,17.6003661 15.8247338,17.6670026 15.7732202,17.7058739 C15.7188448,17.7419686 15.6329889,17.7752869 15.5328237,17.722533 L11.1999618,15.5124224 C10.9395321,15.3791493 10.647622,15.3097363 10.3585738,15.3097363 C10.0695255,15.3097363 9.77475356,15.3791493 9.51718581,15.5124224 L5.1843239,17.722533 C5.08129681,17.7752869 4.99544088,17.7419687 4.94392732,17.7058739 C4.88955192,17.6697791 4.83231464,17.6003661 4.85234769,17.4893052 Z" id="形状"></path>
                </g>
            </g>
        </g>
    </g>
</svg>