<?xml version="1.0" encoding="UTF-8"?>
<svg width="32px" height="32px" viewBox="0 0 32 32" version="1.1" xmlns="http://www.w3.org/2000/svg" xmlns:xlink="http://www.w3.org/1999/xlink">
    <title>定位</title>
    <defs>
        <filter id="filter-1">
            <feColorMatrix in="SourceGraphic" type="matrix" values="0 0 0 0 0.623529 0 0 0 0 0.658824 0 0 0 0 0.694118 0 0 0 1.000000 0"></feColorMatrix>
        </filter>
    </defs>
    <g id="2.0" stroke="none" stroke-width="1" fill="none" fill-rule="evenodd">
        <g id="切图规范" transform="translate(-1339.000000, -4794.000000)">
            <g id="定位" transform="translate(1339.000000, 4794.000000)" filter="url(#filter-1)">
                <g transform="translate(3.000000, 1.000000)" fill="#C7CAD0" fill-rule="nonzero" id="形状">
                    <path d="M12.9620151,17.6198815 C10.383486,17.6198815 8.29320447,15.5295999 8.29320447,12.9510709 C8.29320447,10.3725418 10.383486,8.28226024 12.9620151,8.28226024 C15.5405442,8.28226024 17.6308257,10.3725418 17.6308257,12.9510709 C17.6308257,15.5295999 15.5405442,17.6198815 12.9620151,17.6198815 Z M12.9620151,15.4650458 C14.3504176,15.4650458 15.47599,14.339507 15.47599,12.9510709 C15.47599,11.5626684 14.3504512,10.4370959 12.9620151,10.4370959 C11.5736126,10.4370959 10.4480401,11.5626347 10.4480401,12.9510709 C10.4480401,14.3394733 11.5735789,15.4650458 12.9620151,15.4650458 Z M0.0330010776,12.9510709 C0.0330010776,5.81058055 5.82152478,0.0220568427 12.9620151,0.0220568427 C20.1025054,0.0220568427 25.8910291,5.81058055 25.8910291,12.9510709 C25.8910291,16.521316 24.4438982,19.7535695 22.1042228,22.0932786 L15.2475754,28.9499259 C13.9852842,30.2121835 11.9387123,30.2121835 10.6764547,28.9499259 L3.81980738,22.0932786 C1.48009833,19.7535695 0.0330010776,16.521316 0.0330010776,12.9510709 Z M12.2001616,27.426219 C12.6209254,27.8469828 13.3031048,27.8469828 13.7238685,27.426219 L20.5805159,20.5695717 C22.589406,18.5606479 23.7361934,15.8493737 23.7361934,12.9510709 C23.7361934,7.00063982 18.9124461,2.17689251 12.9620151,2.17689251 C7.01158405,2.17689251 2.18783675,7.00063982 2.18783675,12.9510709 C2.18783675,15.8493737 3.33462419,18.5606479 5.34351428,20.5695717 L12.2001616,27.426219 Z"></path>
                </g>
            </g>
        </g>
    </g>
</svg>