<?xml version="1.0" encoding="UTF-8"?>
<svg width="28px" height="28px" viewBox="0 0 28 28" version="1.1" xmlns="http://www.w3.org/2000/svg" xmlns:xlink="http://www.w3.org/1999/xlink">
    <title>Style</title>
    <g id="控件" stroke="none" stroke-width="1" fill="none" fill-rule="evenodd" opacity="0.5">
        <g id="小程序icon" transform="translate(-42.000000, -567.000000)" fill="#C7CAD0">
            <path d="M56,567 C59.7130309,567 63.2739856,568.474996 65.8994949,571.100505 C68.5250042,573.726014 70,577.286969 70,581 C70,588.731986 63.7319865,595 56,595 C48.2680135,595 42,588.731986 42,581 C42,573.268014 48.2680135,567 56,567 Z M56,569 C49.372583,569 44,574.372583 44,581 C44,587.627417 49.372583,593 56,593 C59.1825979,593 62.2348448,591.735718 64.4852814,589.485281 C66.7357179,587.234845 68,584.182598 68,581 C68,574.372583 62.627417,569 56,569 Z M57,579 L57,589 L55,589 L55,581 L53,581 L53,579 L57,579 Z M56,573 C57.1045695,573 58,573.895431 58,575 C58,576.104569 57.1045695,577 56,577 C54.8954305,577 54,576.104569 54,575 C54,573.895431 54.8954305,573 56,573 Z" id="Style"></path>
        </g>
    </g>
</svg>