<?xml version="1.0" encoding="UTF-8"?>
<svg width="32px" height="32px" viewBox="0 0 32 32" version="1.1" xmlns="http://www.w3.org/2000/svg" xmlns:xlink="http://www.w3.org/1999/xlink">
    <title>Outlined/UI/time</title>
    <defs>
        <filter id="filter-1">
            <feColorMatrix in="SourceGraphic" type="matrix" values="0 0 0 0 0.623529 0 0 0 0 0.658824 0 0 0 0 0.694118 0 0 0 1.000000 0"></feColorMatrix>
        </filter>
    </defs>
    <g id="2.0" stroke="none" stroke-width="1" fill="none" fill-rule="evenodd">
        <g id="切图规范" transform="translate(-1339.000000, -4727.000000)">
            <g id="Outlined/UI/time" transform="translate(1339.000000, 4727.000000)" filter="url(#filter-1)">
                <g>
                    <path d="M16,1.99999996 C19.7130309,1.99999996 23.2739857,3.47499573 25.899495,6.10050503 C28.5250043,8.72601434 30,12.2869691 30,16 C30,23.7319865 23.7319865,30 16,30 C8.26801348,30 1.99999996,23.7319865 1.99999996,16 C1.99999996,8.26801348 8.26801348,1.99999996 16,1.99999996 Z M16,3.99999996 C9.37258298,3.99999996 3.99999996,9.37258298 3.99999996,16 C3.99999996,22.627417 9.37258298,28 16,28 C19.1825979,28 22.2348449,26.7357179 24.4852814,24.4852814 C26.7357179,22.2348449 28,19.1825979 28,16 C28,9.37258298 22.627417,3.99999996 16,3.99999996 Z M17,6.99999997 L17,15.52 L21.62,19.22 L20.38,20.78 L15.75,17.08 C15.2762735,16.7007154 15.0003792,16.1268554 15,15.52 L15,15.52 L15,6.99999997 L17,6.99999997 Z" id="Style" fill="#252C32"></path>
                </g>
            </g>
        </g>
    </g>
</svg>