<?xml version="1.0" encoding="UTF-8"?>
<svg width="54px" height="54px" viewBox="0 0 54 54" version="1.1" xmlns="http://www.w3.org/2000/svg" xmlns:xlink="http://www.w3.org/1999/xlink">
    <title>编组</title>
    <g id="2.0" stroke="none" stroke-width="1" fill="none" fill-rule="evenodd">
        <g id="切图" transform="translate(-2139.000000, -1204.000000)">
            <rect fill="#FFFFFF" x="0" y="0" width="11020" height="7800"></rect>
            <g id="编组" transform="translate(2147.000000, 1211.000000)">
                <path d="M32.8375263,29.5764211 C32.8375263,33.1663234 29.927317,36.0764211 26.3377285,36.0764211 C22.7477357,36.0764211 19.8375263,33.1663234 19.8375263,29.5764211 C19.8375263,25.9865187 22.7477357,23.0764211 26.3377285,23.0764211 C29.927317,23.0764211 32.8375263,25.9865187 32.8375263,29.5764211 Z" id="Stroke-1" stroke="#3065EA" stroke-width="3.3" stroke-linecap="round"></path>
                <path d="M15.5167926,13.2586427 C14.7055338,14.6658274 14.7065987,16.3990855 15.5195439,17.8052936 C16.332489,19.2117681 17.8335975,20.0773319 19.4578015,20.076357 C21.9673701,20.07529 24.0010642,18.0396617 24,15.5293493 C23.9992892,13.0190369 21.9642639,10.9847401 19.4546952,10.9854479 C17.82774,10.9837636 16.3276965,11.8513692 15.5167926,13.2586427 Z" id="Fill-3备份" fill="#7FA3FF"></path>
                <polyline id="Stroke-3" stroke="#000000" stroke-width="3.3" stroke-linecap="round" stroke-linejoin="round" points="14.2253947 29.7892632 6.74618421 29.7892632 0.742763158 3.06215789 38.9327632 3.06215789 32.9869737 19.0387368"></polyline>
                <line x1="0.116894737" y1="0.138263158" x2="8.67873684" y2="39.9956316" id="Stroke-5" stroke="#000000" stroke-width="3.3" stroke-linecap="round"></line>
            </g>
        </g>
    </g>
</svg>