<?xml version="1.0" encoding="UTF-8"?>
<svg width="48px" height="71px" viewBox="0 0 48 71" version="1.1" xmlns="http://www.w3.org/2000/svg" xmlns:xlink="http://www.w3.org/1999/xlink">
    <title>shoushi</title>
    <defs>
        <rect id="path-1" x="0" y="0" width="690" height="276" rx="8"></rect>
        <filter x="-3.6%" y="-7.2%" width="107.2%" height="118.1%" filterUnits="objectBoundingBox" id="filter-2">
            <feOffset dx="0" dy="5" in="SourceAlpha" result="shadowOffsetOuter1"></feOffset>
            <feGaussianBlur stdDeviation="7.5" in="shadowOffsetOuter1" result="shadowBlurOuter1"></feGaussianBlur>
            <feColorMatrix values="0 0 0 0 0.882352941   0 0 0 0 0.901960784   0 0 0 0 0.933333333  0 0 0 1 0" type="matrix" in="shadowBlurOuter1"></feColorMatrix>
        </filter>
        <polygon id="path-3" points="4 4 48 4 48 71 4 71"></polygon>
    </defs>
    <g id="页面-1" stroke="none" stroke-width="1" fill="none" fill-rule="evenodd">
        <g id="超级管理员-首页" transform="translate(-642.000000, -1241.000000)">
            <rect id="矩形" fill="#FFFFFF" x="0" y="0" width="750" height="1630"></rect>
            <g id="编组备份-5" transform="translate(30.000000, 1096.000000)">
                <g id="矩形备份-8">
                    <use fill="black" fill-opacity="1" filter="url(#filter-2)" xlink:href="#path-1"></use>
                    <use fill="#FFFFFF" fill-rule="evenodd" xlink:href="#path-1"></use>
                </g>
                <text id="Label备份-5" font-family="PingFangSC-Regular, PingFang SC" font-size="24" font-weight="normal" line-spacing="38" fill="#6D7278">
                    <tspan x="82" y="233">会议讨论内容会议讨论内容会议讨论内容内容内内容…</tspan>
                </text>
            </g>
            <g id="编组-5" transform="translate(196.000000, 1126.000000)">
                <g id="shoushi" transform="translate(446.000000, 115.000000)">
                    <mask id="mask-4" fill="white">
                        <use xlink:href="#path-3"></use>
                    </mask>
                    <g id="Clip-2"></g>
                    <path d="M47.9466908,49.7004843 C47.6196843,44.3143876 44.4320266,35.9088707 44.4320266,35.9088707 C43.6964259,33.1341579 41.1624534,31.4201433 38.6288087,32.0731324 C38.138299,32.2363797 37.7297047,32.399627 37.3210286,32.6443343 C36.1768336,31.3386833 34.3785438,30.6856124 32.7437572,31.0938942 C31.9264868,31.3386833 31.1908861,31.7466379 30.6187067,32.481087 C29.4744298,31.6651778 28.0848162,31.3386833 26.777036,31.6651778 C26.2867721,31.8284251 25.7962624,31.9913452 25.3876681,32.3178397 L24.079888,26.850283 C23.3442054,24.0755702 20.5652239,22.4433428 17.9496636,23.177792 C15.3341034,23.9123229 13.7812323,26.6870358 14.5165872,29.4616668 L19.0123527,46.1913223 C18.1947546,45.9466149 17.213981,45.9466149 16.3967925,46.1913223 C15.4156912,46.4360296 14.5165872,47.0073132 13.8628201,47.7417624 C12.9637161,48.8027878 12.4732064,50.1085206 12.6367097,51.4957135 C12.7186251,52.8831517 13.3723104,54.1070973 14.4349995,55.0048755 L22.7721079,63.9002159 L23.0991144,64.2267105 C23.1807022,64.3081705 23.26229,64.3899578 23.3442054,64.3899578 C23.5893783,64.6346651 23.6712938,64.6346651 23.7528816,64.7979124 C24.8154887,66.1036451 27.1040425,67.5726252 31.5994803,71 L31.5994803,67.7358725 C28.0848162,65.0426197 26.4502753,63.981676 25.0606617,62.2679886 C24.978992,62.1864468 24.8970765,62.1864468 24.8154887,62.0231995 C24.8154887,62.0231995 24.5700701,61.8599522 24.5700701,61.7784922 L16.1513738,52.8831517 C15.6611099,52.4751971 15.4156912,51.9039952 15.3341034,51.2509244 C15.252188,50.5982624 15.4976066,50.0267334 15.9062828,49.537237 C16.2332893,49.2107424 16.6418835,48.9660351 17.0504778,48.8027878 C17.7861604,48.5580805 18.6852643,48.8027878 19.2574437,49.2922025 L22.6086047,52.2301626 L23.7528816,53.209728 L17.1320656,28.6454305 C16.8053868,27.3396977 17.4591539,26.1157521 18.6033489,25.7892576 C19.7479534,25.462763 20.9738181,26.2789994 21.3008246,27.5029449 L25.4692559,43.1719021 L25.4692559,43.0086548 L25.4692559,43.0901149 L28.1667316,42.3556657 L26.3683599,35.5822944 C26.5318631,34.9293053 27.0224547,34.4398907 27.5126368,34.2765616 C28.2483194,34.1133143 29.1474233,34.6031379 29.637933,35.5822944 L29.883106,36.0717909 L31.5994803,42.6007002 L34.2968741,41.8661693 L32.335081,34.684598 C32.5801721,34.1947744 32.9072604,33.868607 33.3158547,33.7868198 C34.2149586,33.5421125 35.1957323,34.2765616 35.6046542,35.4190471 L36.0133304,36.5615327 L37.7297047,42.8454075 L40.4270985,42.1109584 L38.5468932,35.0925526 C38.7103964,34.9293053 38.9558151,34.7660581 39.2009881,34.684598 C40.100092,34.4398907 41.2443689,35.2557999 41.5713754,36.5615327 C41.5713754,36.5615327 45.3312125,44.3143876 45.249297,50.353228 C45.1676273,56.7185629 43.9415169,58.0242957 44.5955298,65.6956905 L47.5380965,67.8991197 C46.965999,60.4727594 48.2736972,56.065901 47.9466908,49.7004843 Z M12.7515558,15.1801345 C12.7515558,15.1801345 31.2231123,13.5299305 38,9.68018962 C31.9881371,8.69011134 12.7515558,6.93010693 12.7515558,6.93010693 L15.3749202,0 C15.3749202,0 2.3684048,8.25002756 0.728706235,9.56994819 C-0.910882793,10.8897586 0.728706235,12.3199206 0.728706235,12.3199206 L15.3749202,22 L12.7515558,15.1801345 Z" id="Fill-1" fill="#3265E8"></path>
                </g>
            </g>
        </g>
    </g>
</svg>