<?xml version="1.0" encoding="UTF-8"?>
<svg width="32px" height="32px" viewBox="0 0 32 32" version="1.1" xmlns="http://www.w3.org/2000/svg" xmlns:xlink="http://www.w3.org/1999/xlink">
    <title>Outlined/UI/account_group</title>
    <defs>
        <filter id="filter-1">
            <feColorMatrix in="SourceGraphic" type="matrix" values="0 0 0 0 0.623529 0 0 0 0 0.658824 0 0 0 0 0.694118 0 0 0 1.000000 0"></feColorMatrix>
        </filter>
    </defs>
    <g id="2.0" stroke="none" stroke-width="1" fill="none" fill-rule="evenodd">
        <g id="切图规范" transform="translate(-1533.000000, -4727.000000)">
            <g id="Outlined/UI/account_group" transform="translate(1533.000000, 4727.000000)" filter="url(#filter-1)">
                <g>
                    <path d="M25,20 C27.7614238,20 30,22.2385763 30,25 L30,25 L30,30 L28,30 L28,25 C28,23.3431458 26.6568543,22 25,22 L25,22 L15,22 C13.3431457,22 12,23.3431458 12,25 L12,25 L12,30 L9.99999998,30 L9.99999998,25 C9.99999998,22.2385763 12.2385762,20 15,20 L15,20 Z M20,8.99999998 C22.7614238,8.99999998 25,11.2385762 25,14 C25,16.7614238 22.7614238,19 20,19 C17.2385763,19 15,16.7614238 15,14 C15,11.2385762 17.2385763,8.99999998 20,8.99999998 Z M13,11 L13,13 L5.99999996,13 C4.89543047,13 3.99999996,13.8954305 3.99999996,15 L3.99999996,15 L3.99999996,19 L1.99999996,19 L1.99999996,15 C1.99999996,12.790861 3.79086096,11 5.99999996,11 L5.99999996,11 L13,11 Z M20,11 C18.3431458,11 17,12.3431457 17,14 C17,15.6568542 18.3431458,17 20,17 C21.6568543,17 23,15.6568542 23,14 C23,12.3431457 21.6568543,11 20,11 Z M8.93999997,1.99999996 C11.149139,1.99999996 12.94,3.79086096 12.94,5.99999996 C12.94,8.20913897 11.149139,9.99999996 8.93999997,9.99999996 C6.73086097,9.99999996 4.93999997,8.20913897 4.93999997,5.99999996 C4.93999997,3.79086096 6.73086097,1.99999996 8.93999997,1.99999996 Z M8.93999997,3.99999996 C7.83543047,3.99999996 6.93999997,4.89543047 6.93999997,5.99999996 C6.93999997,7.10456947 7.83543047,7.99999996 8.93999997,7.99999996 C10.0445695,7.99999996 10.94,7.10456947 10.94,5.99999996 C10.94,4.89543047 10.0445695,3.99999996 8.93999997,3.99999996 Z" id="Style" fill="#252C32"></path>
                </g>
            </g>
        </g>
    </g>
</svg>