<?xml version="1.0" encoding="UTF-8"?>
<svg width="54px" height="54px" viewBox="0 0 54 54" version="1.1" xmlns="http://www.w3.org/2000/svg" xmlns:xlink="http://www.w3.org/1999/xlink">
    <title>编组</title>
    <g id="2.0" stroke="none" stroke-width="1" fill="none" fill-rule="evenodd">
        <g id="切图" transform="translate(-2035.000000, -1204.000000)">
            <rect fill="#FFFFFF" x="0" y="0" width="11020" height="7800"></rect>
            <g id="编组" transform="translate(2042.000000, 1213.000000)">
                <path d="M1.51679263,6.25864267 C0.705533754,7.66582737 0.706598748,9.39908547 1.51954386,10.8052936 C2.33248898,12.2117681 3.83359746,13.0773319 5.45780145,13.076357 C7.96737013,13.07529 10.0010642,11.0396617 10,8.52934927 C9.99928917,6.01903687 7.96426389,3.98474015 5.45469522,3.9854479 C3.82774,3.98376361 2.32769651,4.8513692 1.51679263,6.25864267 Z" id="Fill-3备份" fill="#7FA3FF"></path>
                <path d="M3.65,1.65 L36.35,1.65 L36.35,26 C36.35,26.3727922 36.1988961,26.7102922 35.9545942,26.9545942 C35.7102922,27.1988961 35.3727922,27.35 35,27.35 L35,27.35 L5,27.35 C4.62720779,27.35 4.28970779,27.1988961 4.04540585,26.9545942 C3.8011039,26.7102922 3.65,26.3727922 3.65,26 L3.65,26 L3.65,1.65 Z" id="矩形" stroke="#000000" stroke-width="3.3"></path>
                <line x1="0.5" y1="1.5" x2="39.5" y2="1.5" id="直线" stroke="#000000" stroke-width="3.3" stroke-linecap="round"></line>
                <g id="编组-4" transform="translate(8.000000, 28.000000)" stroke="#000000" stroke-linecap="round" stroke-width="3.3">
                    <line x1="16" y1="0" x2="23.0710678" y2="7.07106781" id="直线备份"></line>
                    <line x1="2.84217094e-14" y1="0" x2="7.07106781" y2="7.07106781" id="直线备份-2" transform="translate(3.535534, 3.535534) scale(-1, 1) translate(-3.535534, -3.535534) "></line>
                </g>
                <path d="M30.3614609,10.2440811 L23.2133978,15.8571706 L15.6442027,10.8744684 C15.2674038,10.6273709 14.7752519,10.6595806 14.4329824,10.9537387 L8.38806139,16.234648 C8.09553269,16.4456986 7.95020179,16.8092838 8.01537824,17.1670173 C8.08315406,17.5305088 8.34912253,17.823324 8.70111527,17.9219722 C9.05241004,18.0249656 9.43124207,17.928318 9.69245247,17.6690623 L15.1597145,12.8713241 L22.7065487,17.8351524 C23.0674331,18.071787 23.5364364,18.0521199 23.8767738,17.7860803 L31.598769,11.7275674 C31.8897945,11.5243189 32.0415338,11.1712507 31.9901015,10.8170119 C31.9386692,10.4627731 31.6929996,10.1688991 31.3565249,10.0591171 C31.0159957,9.93674105 30.6368979,10.0072083 30.3614609,10.2440811 Z" id="路径" stroke="#3065EA" stroke-width="1.06909091" fill="#3065EA" fill-rule="nonzero"></path>
            </g>
        </g>
    </g>
</svg>